JosefinSlab-LightItalic_fik.ufo
<glyph name="quotesingle" format="1">
  <advance width="192"/>
  <unicode hex="0027"/>
  <outline>
    <contour>
      <point x="102" y="474" type="line"/>
      <point x="133" y="723" type="line"/>
      <point x="172" y="723" type="line"/>
      <point x="138" y="474" type="line"/>
    </contour>
  </outline>
</glyph>
<glyph name="plus" format="1">
  <advance width="467"/>
  <unicode hex="002B"/>
  <outline>
    <contour>
      <point x="189" y="51" type="line"/>
      <point x="208" y="215" type="line"/>
      <point x="46" y="215" type="line"/>
      <point x="51" y="250" type="line"/>
      <point x="213" y="250" type="line"/>
      <point x="233" y="413" type="line"/>
      <point x="269" y="413" type="line"/>
      <point x="250" y="250" type="line"/>
      <point x="412" y="250" type="line"/>
      <point x="407" y="215" type="line"/>
      <point x="245" y="215" type="line"/>
      <point x="225" y="51" type="line"/>
    </contour>
  </outline>
</glyph>
<glyph name="comma" format="1">
  <advance width="227"/>
  <unicode hex="002C"/>
  <outline>
    <contour>
      <point x="127" y="86" type="line"/>
      <point x="113" y="60"/>
      <point x="95" y="28"/>
      <point x="79" y="-1"/>
      <point x="61" y="-34"/>
      <point x="47" y="-60" type="qcurve"/>
      <point x="15" y="-60" type="line"/>
      <point x="28" y="-34"/>
      <point x="44" y="-1"/>
      <point x="58" y="28"/>
      <point x="74" y="60"/>
      <point x="87" y="86" type="qcurve"/>
    </contour>
  </outline>
</glyph>
<glyph name="seven" format="1">
  <advance width="465"/>
  <unicode hex="0037"/>
  <outline>
    <contour>
      <point x="74" y="557" type="line"/>
      <point x="85" y="653" type="line"/>
      <point x="492" y="653" type="line"/>
      <point x="400" y="486"/>
      <point x="220" y="165"/>
      <point x="129" y="0" type="qcurve"/>
      <point x="87" y="0" type="line"/>
      <point x="172" y="152"/>
      <point x="343" y="462"/>
      <point x="431" y="617" type="qcurve"/>
      <point x="116" y="617" type="line"/>
      <point x="109" y="557" type="line"/>
    </contour>
  </outline>
</glyph>
<glyph name="equal" format="1">
  <advance width="661"/>
  <unicode hex="003D"/>
  <outline>
    <contour>
      <point x="573" y="174" type="line"/>
      <point x="568" y="138" type="line"/>
      <point x="60" y="138" type="line"/>
      <point x="65" y="174" type="line"/>
    </contour>
    <contour>
      <point x="597" y="369" type="line"/>
      <point x="592" y="333" type="line"/>
      <point x="84" y="333" type="line"/>
      <point x="89" y="369" type="line"/>
    </contour>
  </outline>
</glyph>
<glyph name="question" format="1">
  <advance width="480"/>
  <unicode hex="003F"/>
  <outline>
    <contour>
      <point x="108" y="584" type="qcurve"/>
      <point x="100" y="587"/>
      <point x="85" y="592"/>
      <point x="78" y="595" type="qcurve"/>
      <point x="90" y="622"/>
      <point x="129" y="672"/>
      <point x="181" y="711"/>
      <point x="247" y="735"/>
      <point x="285" y="735" type="qcurve"/>
      <point x="324" y="735"/>
      <point x="388" y="708"/>
      <point x="434" y="660"/>
      <point x="459" y="596"/>
      <point x="459" y="559" type="qcurve"/>
      <point x="459" y="497"/>
      <point x="395" y="407"/>
      <point x="339" y="370" type="qcurve"/>
      <point x="319" y="357"/>
      <point x="284" y="337"/>
      <point x="255" y="312"/>
      <point x="235" y="274"/>
      <point x="231" y="243" type="qcurve"/>
      <point x="221" y="165" type="line"/>
      <point x="185" y="165" type="line"/>
      <point x="197" y="262" type="line"/>
      <point x="201" y="293"/>
      <point x="227" y="332"/>
      <point x="267" y="361"/>
      <point x="316" y="389"/>
      <point x="342" y="410" type="qcurve"/>
      <point x="384" y="442"/>
      <point x="422" y="515"/>
      <point x="422" y="557" type="qcurve"/>
      <point x="422" y="588"/>
      <point x="401" y="640"/>
      <point x="364" y="678"/>
      <point x="312" y="699"/>
      <point x="281" y="699" type="qcurve"/>
      <point x="222" y="699"/>
      <point x="131" y="638"/>
    </contour>
    <contour>
      <point x="184" y="17" type="qcurve"/>
      <point x="174" y="17"/>
      <point x="158" y="33"/>
      <point x="158" y="44" type="qcurve"/>
      <point x="158" y="59"/>
      <point x="180" y="78"/>
      <point x="192" y="78" type="qcurve"/>
      <point x="202" y="78"/>
      <point x="219" y="63"/>
      <point x="219" y="50" type="qcurve"/>
      <point x="219" y="36"/>
      <point x="197" y="17"/>
    </contour>
  </outline>
</glyph>
<glyph name="A" format="1">
  <advance width="726"/>
  <unicode hex="0041"/>
  <outline>
    <contour>
      <point x="49" y="37" type="line"/>
      <point x="421" y="740" type="line"/>
      <point x="618" y="37" type="line"/>
      <point x="698" y="37" type="line"/>
      <point x="693" y="0" type="line"/>
      <point x="492" y="0" type="line"/>
      <point x="497" y="37" type="line"/>
      <point x="577" y="37" type="line"/>
      <point x="508" y="287" type="line"/>
      <point x="222" y="287" type="line"/>
      <point x="91" y="37" type="line"/>
      <point x="175" y="37" type="line"/>
      <point x="170" y="0" type="line"/>
      <point x="-31" y="0" type="line"/>
      <point x="-26" y="37" type="line"/>
    </contour>
    <contour>
      <point x="240" y="323" type="line"/>
      <point x="498" y="323" type="line"/>
      <point x="416" y="623" type="line"/>
      <point x="414" y="629"/>
      <point x="413" y="634" type="qcurve"/>
      <point x="412" y="639"/>
      <point x="410" y="648"/>
      <point x="410" y="652" type="qcurve"/>
      <point x="408" y="648"/>
      <point x="404" y="639"/>
      <point x="402" y="634" type="qcurve"/>
      <point x="399" y="629"/>
      <point x="397" y="623" type="qcurve"/>
    </contour>
  </outline>
</glyph>
<glyph name="B" format="1">
  <advance width="605"/>
  <unicode hex="0042"/>
  <outline>
    <contour>
      <point x="29" y="0" type="line"/>
      <point x="34" y="37" type="line"/>
      <point x="110" y="37" type="line"/>
      <point x="188" y="670" type="line"/>
      <point x="111" y="670" type="line"/>
      <point x="116" y="707" type="line"/>
      <point x="344" y="707" type="line"/>
      <point x="387" y="707"/>
      <point x="458" y="690"/>
      <point x="508" y="652"/>
      <point x="535" y="594"/>
      <point x="535" y="552" type="qcurve"/>
      <point x="535" y="521"/>
      <point x="521" y="460"/>
      <point x="489" y="407"/>
      <point x="436" y="366"/>
      <point x="398" y="356" type="qcurve"/>
      <point x="424" y="350"/>
      <point x="472" y="326"/>
      <point x="508" y="289"/>
      <point x="529" y="237"/>
      <point x="529" y="204" type="qcurve"/>
      <point x="529" y="153"/>
      <point x="487" y="76"/>
      <point x="418" y="25"/>
      <point x="331" y="0"/>
      <point x="285" y="0" type="qcurve"/>
    </contour>
    <contour>
      <point x="188" y="337" type="line"/>
      <point x="152" y="38" type="line"/>
      <point x="287" y="38" type="line"/>
      <point x="327" y="38"/>
      <point x="400" y="59"/>
      <point x="455" y="100"/>
      <point x="488" y="161"/>
      <point x="488" y="202" type="qcurve"/>
      <point x="488" y="238"/>
      <point x="458" y="289"/>
      <point x="408" y="322"/>
      <point x="342" y="337"/>
      <point x="306" y="337" type="qcurve"/>
    </contour>
    <contour>
      <point x="229" y="669" type="line"/>
      <point x="193" y="373" type="line"/>
      <point x="326" y="373" type="line"/>
      <point x="366" y="373"/>
      <point x="429" y="400"/>
      <point x="472" y="447"/>
      <point x="494" y="510"/>
      <point x="494" y="547" type="qcurve"/>
      <point x="494" y="612"/>
      <point x="414" y="669"/>
      <point x="349" y="669" type="qcurve"/>
    </contour>
  </outline>
</glyph>
<glyph name="D" format="1">
  <advance width="741"/>
  <unicode hex="0044"/>
  <outline>
    <contour>
      <point x="347" y="707" type="line"/>
      <point x="444" y="707"/>
      <point x="577" y="650"/>
      <point x="659" y="560"/>
      <point x="696" y="447"/>
      <point x="696" y="390" type="qcurve"/>
      <point x="696" y="301"/>
      <point x="629" y="157"/>
      <point x="518" y="55"/>
      <point x="373" y="0"/>
      <point x="295" y="0" type="qcurve"/>
      <point x="29" y="0" type="line"/>
      <point x="34" y="37" type="line"/>
      <point x="110" y="37" type="line"/>
      <point x="188" y="670" type="line"/>
      <point x="111" y="670" type="line"/>
      <point x="116" y="707" type="line"/>
    </contour>
    <contour>
      <point x="299" y="40" type="line"/>
      <point x="369" y="40"/>
      <point x="499" y="89"/>
      <point x="597" y="179"/>
      <point x="656" y="307"/>
      <point x="656" y="387" type="qcurve"/>
      <point x="656" y="441"/>
      <point x="620" y="542"/>
      <point x="546" y="620"/>
      <point x="433" y="666"/>
      <point x="357" y="666" type="qcurve"/>
      <point x="229" y="666" type="line"/>
      <point x="210" y="509"/>
      <point x="171" y="198"/>
      <point x="152" y="40" type="qcurve"/>
    </contour>
  </outline>
</glyph>
<glyph name="M" format="1">
  <advance width="952"/>
  <unicode hex="004D"/>
  <outline>
    <contour>
      <point x="946" y="707" type="line"/>
      <point x="941" y="670" type="line"/>
      <point x="862" y="670" type="line"/>
      <point x="784" y="37" type="line"/>
      <point x="866" y="37" type="line"/>
      <point x="861" y="0" type="line"/>
      <point x="658" y="0" type="line"/>
      <point x="663" y="37" type="line"/>
      <point x="741" y="37" type="line"/>
      <point x="807" y="577" type="line"/>
      <point x="809" y="587"/>
      <point x="813" y="608"/>
      <point x="814" y="617" type="qcurve"/>
      <point x="773" y="569"/>
      <point x="680" y="454"/>
      <point x="587" y="337"/>
      <point x="500" y="227"/>
      <point x="466" y="184" type="qcurve"/>
      <point x="451" y="208"/>
      <point x="407" y="282"/>
      <point x="358" y="368"/>
      <point x="308" y="459"/>
      <point x="264" y="539"/>
      <point x="230" y="602"/>
      <point x="222" y="617" type="qcurve"/>
      <point x="220" y="608"/>
      <point x="220" y="587"/>
      <point x="218" y="577" type="qcurve"/>
      <point x="152" y="37" type="line"/>
      <point x="233" y="37" type="line"/>
      <point x="229" y="0" type="line"/>
      <point x="27" y="0" type="line"/>
      <point x="32" y="37" type="line"/>
      <point x="111" y="37" type="line"/>
      <point x="188" y="670" type="line"/>
      <point x="108" y="670" type="line"/>
      <point x="113" y="707" type="line"/>
      <point x="215" y="707" type="line"/>
      <point x="245" y="651"/>
      <point x="313" y="532"/>
      <point x="381" y="415"/>
      <point x="447" y="304"/>
      <point x="475" y="256" type="qcurve"/>
      <point x="488" y="273"/>
      <point x="536" y="332"/>
      <point x="597" y="408"/>
      <point x="667" y="495"/>
      <point x="740" y="584"/>
      <point x="812" y="670"/>
      <point x="844" y="707" type="qcurve"/>
    </contour>
  </outline>
</glyph>
<glyph name="P" format="1">
  <advance width="561"/>
  <unicode hex="0050"/>
  <outline>
    <contour>
      <point x="234" y="37" type="line"/>
      <point x="229" y="0" type="line"/>
      <point x="28" y="0" type="line"/>
      <point x="33" y="37" type="line"/>
      <point x="111" y="37" type="line"/>
      <point x="188" y="670" type="line"/>
      <point x="110" y="670" type="line"/>
      <point x="115" y="707" type="line"/>
      <point x="350" y="707" type="line"/>
      <point x="384" y="707"/>
      <point x="453" y="687"/>
      <point x="509" y="645"/>
      <point x="544" y="579"/>
      <point x="544" y="533" type="qcurve"/>
      <point x="544" y="492"/>
      <point x="515" y="410"/>
      <point x="454" y="344"/>
      <point x="359" y="303"/>
      <point x="294" y="303" type="qcurve"/>
      <point x="185" y="303" type="line"/>
      <point x="152" y="37" type="line"/>
    </contour>
    <contour>
      <point x="190" y="343" type="line"/>
      <point x="300" y="343" type="line"/>
      <point x="358" y="343"/>
      <point x="437" y="382"/>
      <point x="483" y="439"/>
      <point x="503" y="503"/>
      <point x="503" y="528" type="qcurve"/>
      <point x="503" y="558"/>
      <point x="480" y="609"/>
      <point x="438" y="647"/>
      <point x="378" y="668"/>
      <point x="341" y="668" type="qcurve"/>
      <point x="230" y="668" type="line"/>
    </contour>
  </outline>
</glyph>
<glyph name="Q" format="1">
  <advance width="838"/>
  <unicode hex="0051"/>
  <outline>
    <contour>
      <point x="63" y="316" type="qcurve"/>
      <point x="63" y="397"/>
      <point x="130" y="542"/>
      <point x="243" y="651"/>
      <point x="391" y="715"/>
      <point x="471" y="715" type="qcurve"/>
      <point x="540" y="715"/>
      <point x="658" y="664"/>
      <point x="743" y="576"/>
      <point x="792" y="457"/>
      <point x="792" y="389" type="qcurve"/>
      <point x="792" y="334"/>
      <point x="757" y="230"/>
      <point x="693" y="139"/>
      <point x="605" y="64"/>
      <point x="553" y="37" type="qcurve"/>
      <point x="773" y="40" type="line"/>
      <point x="768" y="0" type="line"/>
      <point x="458" y="0" type="line"/>
      <point x="438" y="-4"/>
      <point x="401" y="-8"/>
      <point x="382" y="-8" type="qcurve"/>
      <point x="313" y="-8"/>
      <point x="196" y="42"/>
      <point x="111" y="130"/>
      <point x="63" y="248"/>
    </contour>
    <contour>
      <point x="104" y="319" type="qcurve"/>
      <point x="104" y="259"/>
      <point x="147" y="154"/>
      <point x="222" y="76"/>
      <point x="325" y="31"/>
      <point x="386" y="31" type="qcurve"/>
      <point x="457" y="31"/>
      <point x="589" y="87"/>
      <point x="690" y="184"/>
      <point x="750" y="313"/>
      <point x="750" y="385" type="qcurve"/>
      <point x="750" y="445"/>
      <point x="707" y="551"/>
      <point x="631" y="630"/>
      <point x="527" y="675"/>
      <point x="466" y="675" type="qcurve"/>
      <point x="395" y="675"/>
      <point x="264" y="618"/>
      <point x="164" y="521"/>
      <point x="104" y="391"/>
    </contour>
  </outline>
</glyph>
<glyph name="S" format="1">
  <advance width="555"/>
  <unicode hex="0053"/>
  <outline>
    <contour>
      <point x="31" y="62" type="qcurve"/>
      <point x="43" y="161" type="line"/>
      <point x="82" y="161" type="line"/>
      <point x="73" y="86" type="line"/>
      <point x="104" y="65"/>
      <point x="191" y="32"/>
      <point x="239" y="32" type="qcurve"/>
      <point x="274" y="32"/>
      <point x="349" y="53"/>
      <point x="410" y="97"/>
      <point x="450" y="164"/>
      <point x="450" y="210" type="qcurve"/>
      <point x="450" y="257"/>
      <point x="400" y="315"/>
      <point x="326" y="355"/>
      <point x="239" y="386"/>
      <point x="165" y="424"/>
      <point x="115" y="479"/>
      <point x="115" y="524" type="qcurve"/>
      <point x="115" y="561"/>
      <point x="149" y="629"/>
      <point x="208" y="681"/>
      <point x="290" y="711"/>
      <point x="338" y="711" type="qcurve"/>
      <point x="361" y="711"/>
      <point x="412" y="704"/>
      <point x="460" y="693"/>
      <point x="501" y="679"/>
      <point x="515" y="672" type="qcurve"/>
      <point x="503" y="572" type="line"/>
      <point x="464" y="572" type="line"/>
      <point x="473" y="648" type="line"/>
      <point x="444" y="658"/>
      <point x="374" y="673"/>
      <point x="340" y="673" type="qcurve"/>
      <point x="299" y="673"/>
      <point x="231" y="650"/>
      <point x="183" y="612"/>
      <point x="157" y="560"/>
      <point x="157" y="532" type="qcurve"/>
      <point x="157" y="494"/>
      <point x="206" y="448"/>
      <point x="281" y="414"/>
      <point x="367" y="383"/>
      <point x="442" y="337"/>
      <point x="491" y="268"/>
      <point x="491" y="214" type="qcurve"/>
      <point x="491" y="164"/>
      <point x="454" y="82"/>
      <point x="386" y="24"/>
      <point x="291" y="-8"/>
      <point x="233" y="-8" type="qcurve"/>
      <point x="191" y="-8"/>
      <point x="125" y="9"/>
      <point x="75" y="32"/>
      <point x="40" y="55"/>
    </contour>
  </outline>
</glyph>
<glyph name="U" format="1">
  <advance width="724"/>
  <unicode hex="0055"/>
  <outline>
    <contour>
      <point x="300" y="707" type="line"/>
      <point x="295" y="670" type="line"/>
      <point x="214" y="670" type="line"/>
      <point x="161" y="238" type="line"/>
      <point x="155" y="190"/>
      <point x="175" y="113"/>
      <point x="222" y="59"/>
      <point x="291" y="31"/>
      <point x="334" y="31" type="qcurve"/>
      <point x="376" y="31"/>
      <point x="452" y="59"/>
      <point x="512" y="113"/>
      <point x="552" y="190"/>
      <point x="558" y="238" type="qcurve"/>
      <point x="615" y="707" type="line"/>
      <point x="735" y="707" type="line"/>
      <point x="731" y="670" type="line"/>
      <point x="652" y="670" type="line"/>
      <point x="599" y="235" type="line"/>
      <point x="592" y="177"/>
      <point x="544" y="86"/>
      <point x="471" y="24"/>
      <point x="380" y="-8"/>
      <point x="329" y="-8" type="qcurve"/>
      <point x="278" y="-8"/>
      <point x="194" y="24"/>
      <point x="138" y="86"/>
      <point x="112" y="177"/>
      <point x="120" y="235" type="qcurve"/>
      <point x="172" y="670" type="line"/>
      <point x="94" y="670" type="line"/>
      <point x="99" y="707" type="line"/>
    </contour>
  </outline>
</glyph>
<glyph name="V" format="1">
  <advance width="718"/>
  <unicode hex="0056"/>
  <outline>
    <contour>
      <point x="766" y="707" type="line"/>
      <point x="761" y="670" type="line"/>
      <point x="694" y="670" type="line"/>
      <point x="322" y="-32" type="line"/>
      <point x="124" y="670" type="line"/>
      <point x="48" y="670" type="line"/>
      <point x="53" y="707" type="line"/>
      <point x="254" y="707" type="line"/>
      <point x="249" y="670" type="line"/>
      <point x="166" y="670" type="line"/>
      <point x="327" y="85" type="line"/>
      <point x="329" y="79"/>
      <point x="330" y="74" type="qcurve"/>
      <point x="331" y="69"/>
      <point x="332" y="60"/>
      <point x="333" y="56" type="qcurve"/>
      <point x="337" y="66"/>
      <point x="341" y="74" type="qcurve"/>
      <point x="344" y="79"/>
      <point x="346" y="85" type="qcurve"/>
      <point x="652" y="670" type="line"/>
      <point x="570" y="670" type="line"/>
      <point x="574" y="707" type="line"/>
    </contour>
  </outline>
</glyph>
<glyph name="backslash" format="1">
  <advance width="403"/>
  <unicode hex="005C"/>
  <outline>
    <contour>
      <point x="140" y="739" type="line"/>
      <point x="325" y="-19" type="line"/>
      <point x="286" y="-19" type="line"/>
      <point x="100" y="739" type="line"/>
    </contour>
  </outline>
</glyph>
<glyph name="i" format="1">
  <advance width="233"/>
  <unicode hex="0069"/>
  <outline>
    <contour>
      <point x="151" y="387" type="line"/>
      <point x="108" y="31" type="line"/>
      <point x="184" y="31" type="line"/>
      <point x="180" y="0" type="line"/>
      <point x="-5" y="0" type="line"/>
      <point x="-1" y="31" type="line"/>
      <point x="73" y="31" type="line"/>
      <point x="113" y="356" type="line"/>
      <point x="39" y="356" type="line"/>
      <point x="43" y="387" type="line"/>
    </contour>
    <contour>
      <point x="121" y="519" type="qcurve"/>
      <point x="121" y="533"/>
      <point x="142" y="553"/>
      <point x="155" y="553" type="qcurve"/>
      <point x="166" y="553"/>
      <point x="181" y="537"/>
      <point x="181" y="525" type="qcurve"/>
      <point x="181" y="511"/>
      <point x="160" y="492"/>
      <point x="147" y="492" type="qcurve"/>
      <point x="136" y="492"/>
      <point x="121" y="508"/>
    </contour>
  </outline>
</glyph>
<glyph name="j" format="1">
  <advance width="191"/>
  <unicode hex="006A"/>
  <outline>
    <contour>
      <point x="-10" y="-186" type="qcurve"/>
      <point x="-32" y="-162" type="line"/>
      <point x="-3" y="-135"/>
      <point x="38" y="-58"/>
      <point x="44" y="-7" type="qcurve"/>
      <point x="88" y="356" type="line"/>
      <point x="14" y="356" type="line"/>
      <point x="18" y="387" type="line"/>
      <point x="126" y="387" type="line"/>
      <point x="122" y="356" type="line"/>
      <point x="78" y="-5" type="line"/>
      <point x="70" y="-65"/>
      <point x="25" y="-156"/>
    </contour>
    <contour>
      <point x="96" y="519" type="qcurve"/>
      <point x="96" y="533"/>
      <point x="117" y="553"/>
      <point x="130" y="553" type="qcurve"/>
      <point x="141" y="553"/>
      <point x="157" y="537"/>
      <point x="157" y="525" type="qcurve"/>
      <point x="157" y="511"/>
      <point x="136" y="492"/>
      <point x="123" y="492" type="qcurve"/>
      <point x="112" y="492"/>
      <point x="96" y="508"/>
    </contour>
  </outline>
</glyph>
<glyph name="k" format="1">
  <advance width="446"/>
  <unicode hex="006B"/>
  <outline>
    <contour>
      <point x="278" y="395" type="line"/>
      <point x="425" y="395" type="line"/>
      <point x="422" y="370" type="line"/>
      <point x="374" y="370" type="line"/>
      <point x="218" y="237" type="line"/>
      <point x="249" y="185"/>
      <point x="311" y="82"/>
      <point x="343" y="31" type="qcurve"/>
      <point x="406" y="31" type="line"/>
      <point x="402" y="0" type="line"/>
      <point x="320" y="0" type="line"/>
      <point x="320" y="1" type="line"/>
      <point x="287" y="55"/>
      <point x="221" y="160"/>
      <point x="190" y="214" type="qcurve"/>
      <point x="112" y="148" type="line"/>
      <point x="98" y="31" type="line"/>
      <point x="174" y="31" type="line"/>
      <point x="170" y="0" type="line"/>
      <point x="-15" y="0" type="line"/>
      <point x="-11" y="31" type="line"/>
      <point x="63" y="31" type="line"/>
      <point x="148" y="727" type="line"/>
      <point x="74" y="727" type="line"/>
      <point x="78" y="758" type="line"/>
      <point x="187" y="758" type="line"/>
      <point x="117" y="192" type="line"/>
      <point x="329" y="370" type="line"/>
      <point x="275" y="370" type="line"/>
    </contour>
  </outline>
</glyph>
<glyph name="l" format="1">
  <advance width="225"/>
  <unicode hex="006C"/>
  <outline>
    <contour>
      <point x="189" y="758" type="line"/>
      <point x="100" y="31" type="line"/>
      <point x="176" y="31" type="line"/>
      <point x="172" y="0" type="line"/>
      <point x="-13" y="0" type="line"/>
      <point x="-9" y="31" type="line"/>
      <point x="65" y="31" type="line"/>
      <point x="150" y="727" type="line"/>
      <point x="76" y="727" type="line"/>
      <point x="80" y="758" type="line"/>
    </contour>
  </outline>
</glyph>
<glyph name="m" format="1">
  <advance width="795"/>
  <unicode hex="006D"/>
  <outline>
    <contour>
      <point x="680" y="58" type="line"/>
      <point x="677" y="31" type="line"/>
      <point x="751" y="31" type="line"/>
      <point x="747" y="0" type="line"/>
      <point x="563" y="0" type="line"/>
      <point x="567" y="31" type="line"/>
      <point x="642" y="31" type="line"/>
      <point x="645" y="57" type="line"/>
      <point x="672" y="274" type="line"/>
      <point x="674" y="309"/>
      <point x="634" y="359"/>
      <point x="590" y="361" type="qcurve"/>
      <point x="558" y="361"/>
      <point x="499" y="340"/>
      <point x="452" y="303"/>
      <point x="420" y="252"/>
      <point x="415" y="221" type="qcurve"/>
      <point x="395" y="58" type="line"/>
      <point x="392" y="31" type="line"/>
      <point x="466" y="31" type="line"/>
      <point x="462" y="0" type="line"/>
      <point x="278" y="0" type="line"/>
      <point x="282" y="31" type="line"/>
      <point x="357" y="31" type="line"/>
      <point x="359" y="42" type="line"/>
      <point x="360" y="57" type="line"/>
      <point x="361" y="57" type="line"/>
      <point x="387" y="274" type="line"/>
      <point x="390" y="309"/>
      <point x="349" y="359"/>
      <point x="306" y="361" type="qcurve"/>
      <point x="273" y="361"/>
      <point x="213" y="339"/>
      <point x="166" y="301"/>
      <point x="134" y="247"/>
      <point x="130" y="216" type="qcurve"/>
      <point x="109" y="41" type="line"/>
      <point x="108" y="31" type="line"/>
      <point x="184" y="31" type="line"/>
      <point x="180" y="0" type="line"/>
      <point x="-5" y="0" type="line"/>
      <point x="-1" y="31" type="line"/>
      <point x="73" y="31" type="line"/>
      <point x="113" y="356" type="line"/>
      <point x="39" y="356" type="line"/>
      <point x="43" y="387" type="line"/>
      <point x="145" y="387" type="line"/>
      <point x="145" y="383"/>
      <point x="142" y="353"/>
      <point x="139" y="319"/>
      <point x="136" y="290"/>
      <point x="136" y="287" type="qcurve"/>
      <point x="163" y="335"/>
      <point x="255" y="395"/>
      <point x="313" y="395" type="qcurve"/>
      <point x="366" y="395"/>
      <point x="423" y="338"/>
      <point x="423" y="292" type="qcurve"/>
      <point x="451" y="338"/>
      <point x="541" y="395"/>
      <point x="598" y="395" type="qcurve"/>
      <point x="654" y="395"/>
      <point x="712" y="331"/>
      <point x="707" y="280" type="qcurve"/>
    </contour>
  </outline>
</glyph>
<glyph name="bar" format="1">
  <advance width="233"/>
  <unicode hex="007C"/>
  <outline>
    <contour>
      <point x="37" y="-233" type="line"/>
      <point x="151" y="703" type="line"/>
      <point x="188" y="703" type="line"/>
      <point x="73" y="-233" type="line"/>
    </contour>
  </outline>
</glyph>
<glyph name="asciitilde" format="1">
  <advance width="470"/>
  <unicode hex="007E"/>
  <outline>
    <contour>
      <point x="254" y="494" type="qcurve"/>
      <point x="240" y="511"/>
      <point x="218" y="523"/>
      <point x="204" y="523" type="qcurve"/>
      <point x="196" y="523"/>
      <point x="176" y="519"/>
      <point x="156" y="507"/>
      <point x="139" y="486"/>
      <point x="135" y="470" type="qcurve"/>
      <point x="112" y="473" type="line"/>
      <point x="115" y="492"/>
      <point x="135" y="520"/>
      <point x="161" y="538"/>
      <point x="192" y="547"/>
      <point x="206" y="547" type="qcurve"/>
      <point x="227" y="547"/>
      <point x="259" y="527"/>
      <point x="273" y="510" type="qcurve"/>
      <point x="287" y="493"/>
      <point x="310" y="481"/>
      <point x="324" y="481" type="qcurve"/>
      <point x="331" y="481"/>
      <point x="352" y="485"/>
      <point x="372" y="497"/>
      <point x="388" y="518"/>
      <point x="392" y="534" type="qcurve"/>
      <point x="415" y="531" type="line"/>
      <point x="407" y="493"/>
      <point x="350" y="458"/>
      <point x="321" y="458" type="qcurve"/>
      <point x="300" y="458"/>
      <point x="268" y="477"/>
    </contour>
  </outline>
</glyph>
<glyph name="exclamdown" format="1">
  <advance width="238"/>
  <unicode hex="00A1"/>
  <outline>
    <contour>
      <point x="114" y="376" type="line"/>
      <point x="151" y="376" type="line"/>
      <point x="78" y="-211" type="line"/>
      <point x="42" y="-211" type="line"/>
    </contour>
    <contour>
      <point x="150" y="518" type="qcurve"/>
      <point x="162" y="518"/>
      <point x="177" y="500"/>
      <point x="176" y="487" type="qcurve"/>
      <point x="174" y="473"/>
      <point x="154" y="457"/>
      <point x="143" y="457" type="qcurve"/>
      <point x="131" y="457"/>
      <point x="115" y="473"/>
      <point x="116" y="487" type="qcurve"/>
      <point x="118" y="500"/>
      <point x="139" y="518"/>
    </contour>
  </outline>
</glyph>
<glyph name="brokenbar" format="1">
  <advance width="238"/>
  <unicode hex="00A6"/>
  <outline>
    <contour>
      <point x="75" y="-234" type="line"/>
      <point x="39" y="-234" type="line"/>
      <point x="82" y="117" type="line"/>
      <point x="118" y="117" type="line"/>
    </contour>
    <contour>
      <point x="147" y="351" type="line"/>
      <point x="111" y="351" type="line"/>
      <point x="154" y="703" type="line"/>
      <point x="191" y="703" type="line"/>
    </contour>
  </outline>
</glyph>
<glyph name="copyright" format="1">
  <advance width="657"/>
  <unicode hex="00A9"/>
  <outline>
    <contour>
      <point x="310" y="117" type="qcurve"/>
      <point x="260" y="117"/>
      <point x="176" y="151"/>
      <point x="116" y="212"/>
      <point x="82" y="295"/>
      <point x="82" y="344" type="qcurve"/>
      <point x="82" y="405"/>
      <point x="129" y="509"/>
      <point x="209" y="585"/>
      <point x="314" y="628"/>
      <point x="372" y="628" type="qcurve"/>
      <point x="422" y="628"/>
      <point x="506" y="594"/>
      <point x="566" y="534"/>
      <point x="600" y="450"/>
      <point x="600" y="400" type="qcurve"/>
      <point x="600" y="340"/>
      <point x="553" y="236"/>
      <point x="474" y="160"/>
      <point x="368" y="117"/>
    </contour>
    <contour>
      <point x="312" y="135" type="qcurve"/>
      <point x="365" y="135"/>
      <point x="462" y="175"/>
      <point x="536" y="246"/>
      <point x="580" y="341"/>
      <point x="580" y="397" type="qcurve"/>
      <point x="580" y="443"/>
      <point x="548" y="522"/>
      <point x="492" y="578"/>
      <point x="415" y="610"/>
      <point x="370" y="610" type="qcurve"/>
      <point x="317" y="610"/>
      <point x="221" y="570"/>
      <point x="146" y="499"/>
      <point x="102" y="402"/>
      <point x="102" y="346" type="qcurve"/>
      <point x="102" y="301"/>
      <point x="134" y="224"/>
      <point x="190" y="167"/>
      <point x="267" y="135"/>
    </contour>
    <contour>
      <point x="428" y="474" type="line"/>
      <point x="432" y="506" type="line"/>
      <point x="418" y="514"/>
      <point x="385" y="521"/>
      <point x="368" y="521" type="qcurve"/>
      <point x="335" y="521"/>
      <point x="276" y="495"/>
      <point x="230" y="451"/>
      <point x="203" y="391"/>
      <point x="203" y="358" type="qcurve"/>
      <point x="203" y="332"/>
      <point x="220" y="286"/>
      <point x="253" y="251"/>
      <point x="300" y="230"/>
      <point x="329" y="230" type="qcurve"/>
      <point x="354" y="230"/>
      <point x="397" y="244"/>
      <point x="412" y="252" type="qcurve"/>
      <point x="419" y="235" type="line"/>
      <point x="402" y="225"/>
      <point x="355" y="211"/>
      <point x="327" y="211" type="qcurve"/>
      <point x="294" y="211"/>
      <point x="241" y="234"/>
      <point x="204" y="273"/>
      <point x="184" y="326"/>
      <point x="184" y="355" type="qcurve"/>
      <point x="184" y="394"/>
      <point x="215" y="461"/>
      <point x="266" y="510"/>
      <point x="333" y="539"/>
      <point x="369" y="539" type="qcurve"/>
      <point x="393" y="539"/>
      <point x="436" y="526"/>
      <point x="451" y="516" type="qcurve"/>
      <point x="446" y="474" type="line"/>
    </contour>
  </outline>
</glyph>
<glyph name="registered" format="1">
  <advance width="657"/>
  <unicode hex="00AE"/>
  <outline>
    <contour>
      <point x="310" y="117" type="qcurve"/>
      <point x="260" y="117"/>
      <point x="176" y="151"/>
      <point x="116" y="212"/>
      <point x="82" y="295"/>
      <point x="82" y="344" type="qcurve"/>
      <point x="82" y="405"/>
      <point x="129" y="509"/>
      <point x="209" y="585"/>
      <point x="314" y="628"/>
      <point x="372" y="628" type="qcurve"/>
      <point x="422" y="628"/>
      <point x="506" y="594"/>
      <point x="566" y="534"/>
      <point x="600" y="450"/>
      <point x="600" y="400" type="qcurve"/>
      <point x="600" y="340"/>
      <point x="553" y="236"/>
      <point x="474" y="160"/>
      <point x="368" y="117"/>
    </contour>
    <contour>
      <point x="312" y="135" type="qcurve"/>
      <point x="365" y="135"/>
      <point x="462" y="175"/>
      <point x="536" y="246"/>
      <point x="580" y="341"/>
      <point x="580" y="397" type="qcurve"/>
      <point x="580" y="443"/>
      <point x="548" y="522"/>
      <point x="492" y="578"/>
      <point x="415" y="610"/>
      <point x="370" y="610" type="qcurve"/>
      <point x="317" y="610"/>
      <point x="221" y="570"/>
      <point x="146" y="499"/>
      <point x="102" y="402"/>
      <point x="102" y="346" type="qcurve"/>
      <point x="102" y="301"/>
      <point x="134" y="224"/>
      <point x="190" y="167"/>
      <point x="267" y="135"/>
    </contour>
    <contour>
      <point x="457" y="231" type="line"/>
      <point x="455" y="214" type="line"/>
      <point x="409" y="214" type="line"/>
      <point x="407" y="218"/>
      <point x="389" y="254"/>
      <point x="368" y="299"/>
      <point x="347" y="342"/>
      <point x="342" y="353" type="qcurve"/>
      <point x="335" y="352"/>
      <point x="322" y="351"/>
      <point x="314" y="351" type="qcurve"/>
      <point x="265" y="351" type="line"/>
      <point x="251" y="231" type="line"/>
      <point x="287" y="231" type="line"/>
      <point x="285" y="214" type="line"/>
      <point x="194" y="214" type="line"/>
      <point x="197" y="231" type="line"/>
      <point x="232" y="231" type="line"/>
      <point x="267" y="517" type="line"/>
      <point x="231" y="517" type="line"/>
      <point x="234" y="534" type="line"/>
      <point x="340" y="534" type="line"/>
      <point x="355" y="534"/>
      <point x="386" y="525"/>
      <point x="411" y="506"/>
      <point x="427" y="476"/>
      <point x="427" y="455" type="qcurve"/>
      <point x="427" y="426"/>
      <point x="396" y="372"/>
      <point x="362" y="359" type="qcurve"/>
      <point x="423" y="231" type="line"/>
    </contour>
    <contour>
      <point x="267" y="369" type="line"/>
      <point x="317" y="369" type="line"/>
      <point x="343" y="369"/>
      <point x="379" y="387"/>
      <point x="400" y="413"/>
      <point x="409" y="442"/>
      <point x="409" y="453" type="qcurve"/>
      <point x="409" y="480"/>
      <point x="370" y="516"/>
      <point x="336" y="516" type="qcurve"/>
      <point x="286" y="516" type="line"/>
    </contour>
  </outline>
</glyph>
<glyph name="macron" format="1">
  <advance width="401"/>
  <unicode hex="00AF"/>
  <outline>
    <contour>
      <point x="145" y="489" type="line"/>
      <point x="149" y="516" type="line"/>
      <point x="380" y="516" type="line"/>
      <point x="376" y="489" type="line"/>
    </contour>
  </outline>
</glyph>
<glyph name="plusminus" format="1">
  <advance width="541"/>
  <unicode hex="00B1"/>
  <outline>
    <contour>
      <point x="248" y="212" type="line"/>
      <point x="268" y="375" type="line"/>
      <point x="106" y="375" type="line"/>
      <point x="110" y="411" type="line"/>
      <point x="272" y="411" type="line"/>
      <point x="292" y="573" type="line"/>
      <point x="329" y="573" type="line"/>
      <point x="309" y="411" type="line"/>
      <point x="471" y="411" type="line"/>
      <point x="467" y="375" type="line"/>
      <point x="305" y="375" type="line"/>
      <point x="284" y="212" type="line"/>
    </contour>
    <contour>
      <point x="436" y="121" type="line"/>
      <point x="74" y="121" type="line"/>
      <point x="79" y="157" type="line"/>
      <point x="440" y="157" type="line"/>
    </contour>
  </outline>
</glyph>
<glyph name="twosuperior" format="1">
  <advance width="344"/>
  <unicode hex="00B2"/>
  <outline>
    <contour>
      <point x="132" y="392" type="qcurve"/>
      <point x="277" y="392" type="line"/>
      <point x="284" y="449" type="line"/>
      <point x="302" y="449" type="line"/>
      <point x="293" y="375" type="line"/>
      <point x="86" y="375" type="line"/>
      <point x="123" y="407"/>
      <point x="193" y="469"/>
      <point x="247" y="528"/>
      <point x="279" y="584"/>
      <point x="279" y="610" type="qcurve"/>
      <point x="279" y="631"/>
      <point x="267" y="659"/>
      <point x="248" y="676"/>
      <point x="225" y="684"/>
      <point x="215" y="684" type="qcurve"/>
      <point x="190" y="684"/>
      <point x="157" y="665"/>
      <point x="137" y="637"/>
      <point x="129" y="607"/>
      <point x="129" y="595" type="qcurve"/>
      <point x="129" y="569"/>
      <point x="143" y="550" type="qcurve"/>
      <point x="131" y="539" type="line"/>
      <point x="121" y="549"/>
      <point x="111" y="579"/>
      <point x="111" y="595" type="qcurve"/>
      <point x="111" y="638"/>
      <point x="167" y="701"/>
      <point x="217" y="701" type="qcurve"/>
      <point x="255" y="701"/>
      <point x="298" y="652"/>
      <point x="298" y="615" type="qcurve"/>
      <point x="298" y="586"/>
      <point x="268" y="529"/>
      <point x="220" y="474"/>
      <point x="161" y="419"/>
    </contour>
  </outline>
</glyph>
<glyph name="cedilla" format="1">
  <advance width="454"/>
  <unicode hex="00B8"/>
  <outline>
    <contour>
      <point x="191" y="0" type="line"/>
      <point x="218" y="0" type="line"/>
      <point x="217" y="-6" type="line"/>
      <point x="215" y="-20"/>
      <point x="220" y="-37"/>
      <point x="231" y="-49"/>
      <point x="245" y="-57"/>
      <point x="251" y="-61" type="qcurve"/>
      <point x="269" y="-75"/>
      <point x="284" y="-110"/>
      <point x="284" y="-124" type="qcurve"/>
      <point x="284" y="-175"/>
      <point x="223" y="-233"/>
      <point x="180" y="-233" type="qcurve"/>
      <point x="151" y="-233"/>
      <point x="106" y="-201"/>
      <point x="99" y="-169" type="qcurve"/>
      <point x="125" y="-158" type="line"/>
      <point x="128" y="-178"/>
      <point x="158" y="-203"/>
      <point x="181" y="-203" type="qcurve"/>
      <point x="213" y="-203"/>
      <point x="254" y="-160"/>
      <point x="254" y="-128" type="qcurve"/>
      <point x="254" y="-106"/>
      <point x="232" y="-80"/>
      <point x="206" y="-61"/>
      <point x="186" y="-40"/>
      <point x="188" y="-22" type="qcurve"/>
    </contour>
  </outline>
</glyph>
<glyph name="onesuperior" format="1">
  <advance width="186"/>
  <unicode hex="00B9"/>
  <outline>
    <contour>
      <point x="96" y="685" type="line"/>
      <point x="98" y="701" type="line"/>
      <point x="161" y="701" type="line"/>
      <point x="124" y="401" type="line"/>
      <point x="107" y="401" type="line"/>
      <point x="142" y="685" type="line"/>
    </contour>
  </outline>
</glyph>
<glyph name="onehalf" format="1">
  <advance width="836"/>
  <unicode hex="00BD"/>
  <outline>
    <contour>
      <point x="530" y="25" type="qcurve"/>
      <point x="737" y="25" type="line"/>
      <point x="747" y="105" type="line"/>
      <point x="773" y="105" type="line"/>
      <point x="760" y="0" type="line"/>
      <point x="464" y="0" type="line"/>
      <point x="517" y="46"/>
      <point x="617" y="134"/>
      <point x="694" y="219"/>
      <point x="740" y="299"/>
      <point x="740" y="337" type="qcurve"/>
      <point x="740" y="367"/>
      <point x="723" y="407"/>
      <point x="696" y="431"/>
      <point x="664" y="442"/>
      <point x="649" y="442" type="qcurve"/>
      <point x="613" y="442"/>
      <point x="565" y="415"/>
      <point x="537" y="375"/>
      <point x="526" y="331"/>
      <point x="526" y="315" type="qcurve"/>
      <point x="526" y="276"/>
      <point x="546" y="251" type="qcurve"/>
      <point x="529" y="236" type="line"/>
      <point x="515" y="250"/>
      <point x="501" y="292"/>
      <point x="501" y="315" type="qcurve"/>
      <point x="501" y="345"/>
      <point x="521" y="401"/>
      <point x="560" y="443"/>
      <point x="616" y="468"/>
      <point x="652" y="468" type="qcurve"/>
      <point x="706" y="468"/>
      <point x="767" y="397"/>
      <point x="767" y="344" type="qcurve"/>
      <point x="767" y="302"/>
      <point x="724" y="221"/>
      <point x="656" y="142"/>
      <point x="572" y="64"/>
    </contour>
    <contour>
      <point x="168" y="-19" type="line"/>
      <point x="541" y="738" type="line"/>
      <point x="577" y="738" type="line"/>
      <point x="204" y="-19" type="line"/>
    </contour>
    <contour>
      <point x="87" y="672" type="line"/>
      <point x="90" y="697" type="line"/>
      <point x="186" y="697" type="line"/>
      <point x="130" y="234" type="line"/>
      <point x="103" y="234" type="line"/>
      <point x="157" y="672" type="line"/>
    </contour>
  </outline>
</glyph>
<glyph name="Acircumflex" format="1">
  <advance width="726"/>
  <unicode hex="00C2"/>
  <outline>
    <contour>
      <point x="-26" y="37" type="line"/>
      <point x="-31" y="0" type="line"/>
      <point x="170" y="0" type="line"/>
      <point x="175" y="37" type="line"/>
      <point x="91" y="37" type="line"/>
      <point x="222" y="287" type="line"/>
      <point x="508" y="287" type="line"/>
      <point x="577" y="37" type="line"/>
      <point x="497" y="37" type="line"/>
      <point x="492" y="0" type="line"/>
      <point x="693" y="0" type="line"/>
      <point x="698" y="37" type="line"/>
      <point x="618" y="37" type="line"/>
      <point x="421" y="740" type="line"/>
      <point x="49" y="37" type="line"/>
    </contour>
    <contour>
      <point x="397" y="623" type="line"/>
      <point x="399" y="629"/>
      <point x="402" y="634" type="qcurve"/>
      <point x="404" y="639"/>
      <point x="408" y="648"/>
      <point x="410" y="652" type="qcurve"/>
      <point x="410" y="648"/>
      <point x="412" y="639"/>
      <point x="413" y="634" type="qcurve"/>
      <point x="414" y="629"/>
      <point x="416" y="623" type="qcurve"/>
      <point x="498" y="323" type="line"/>
      <point x="240" y="323" type="line"/>
    </contour>
    <contour>
      <point x="436" y="872" type="qcurve"/>
      <point x="463" y="838"/>
      <point x="485" y="812" type="qcurve"/>
      <point x="504" y="789"/>
      <point x="538" y="749"/>
      <point x="541" y="744" type="qcurve"/>
      <point x="511" y="744" type="line"/>
      <point x="430" y="826" type="line"/>
      <point x="329" y="744" type="line"/>
      <point x="300" y="744" type="line"/>
      <point x="304" y="748"/>
      <point x="347" y="789"/>
      <point x="372" y="812" type="qcurve"/>
      <point x="401" y="839"/>
    </contour>
  </outline>
</glyph>
<glyph name="Atilde" format="1">
  <advance width="726"/>
  <unicode hex="00C3"/>
  <outline>
    <contour>
      <point x="-26" y="37" type="line"/>
      <point x="-31" y="0" type="line"/>
      <point x="170" y="0" type="line"/>
      <point x="175" y="37" type="line"/>
      <point x="91" y="37" type="line"/>
      <point x="222" y="287" type="line"/>
      <point x="508" y="287" type="line"/>
      <point x="577" y="37" type="line"/>
      <point x="497" y="37" type="line"/>
      <point x="492" y="0" type="line"/>
      <point x="693" y="0" type="line"/>
      <point x="698" y="37" type="line"/>
      <point x="618" y="37" type="line"/>
      <point x="421" y="740" type="line"/>
      <point x="49" y="37" type="line"/>
    </contour>
    <contour>
      <point x="397" y="623" type="line"/>
      <point x="399" y="629"/>
      <point x="402" y="634" type="qcurve"/>
      <point x="404" y="639"/>
      <point x="408" y="648"/>
      <point x="410" y="652" type="qcurve"/>
      <point x="410" y="648"/>
      <point x="412" y="639"/>
      <point x="413" y="634" type="qcurve"/>
      <point x="414" y="629"/>
      <point x="416" y="623" type="qcurve"/>
      <point x="498" y="323" type="line"/>
      <point x="240" y="323" type="line"/>
    </contour>
    <contour>
      <point x="418" y="785" type="qcurve"/>
      <point x="404" y="802"/>
      <point x="382" y="814"/>
      <point x="368" y="814" type="qcurve"/>
      <point x="360" y="814"/>
      <point x="340" y="810"/>
      <point x="320" y="798"/>
      <point x="303" y="777"/>
      <point x="299" y="761" type="qcurve"/>
      <point x="276" y="764" type="line"/>
      <point x="279" y="783"/>
      <point x="299" y="811"/>
      <point x="325" y="829"/>
      <point x="356" y="838"/>
      <point x="370" y="838" type="qcurve"/>
      <point x="391" y="838"/>
      <point x="423" y="818"/>
      <point x="437" y="801" type="qcurve"/>
      <point x="451" y="784"/>
      <point x="474" y="772"/>
      <point x="488" y="772" type="qcurve"/>
      <point x="495" y="772"/>
      <point x="516" y="776"/>
      <point x="536" y="788"/>
      <point x="552" y="809"/>
      <point x="556" y="825" type="qcurve"/>
      <point x="579" y="822" type="line"/>
      <point x="571" y="784"/>
      <point x="514" y="749"/>
      <point x="485" y="749" type="qcurve"/>
      <point x="464" y="749"/>
      <point x="432" y="768"/>
    </contour>
  </outline>
</glyph>
<glyph name="Aring" format="1">
  <advance width="726"/>
  <unicode hex="00C5"/>
  <outline>
    <contour>
      <point x="49" y="37" type="line"/>
      <point x="421" y="740" type="line"/>
      <point x="618" y="37" type="line"/>
      <point x="698" y="37" type="line"/>
      <point x="693" y="0" type="line"/>
      <point x="492" y="0" type="line"/>
      <point x="497" y="37" type="line"/>
      <point x="577" y="37" type="line"/>
      <point x="508" y="287" type="line"/>
      <point x="222" y="287" type="line"/>
      <point x="91" y="37" type="line"/>
      <point x="175" y="37" type="line"/>
      <point x="170" y="0" type="line"/>
      <point x="-31" y="0" type="line"/>
      <point x="-26" y="37" type="line"/>
    </contour>
    <contour>
      <point x="240" y="323" type="line"/>
      <point x="498" y="323" type="line"/>
      <point x="416" y="623" type="line"/>
      <point x="414" y="629"/>
      <point x="413" y="634" type="qcurve"/>
      <point x="412" y="639"/>
      <point x="410" y="648"/>
      <point x="410" y="652" type="qcurve"/>
      <point x="408" y="648"/>
      <point x="404" y="639"/>
      <point x="402" y="634" type="qcurve"/>
      <point x="399" y="629"/>
      <point x="397" y="623" type="qcurve"/>
    </contour>
    <contour>
      <point x="361" y="806" type="qcurve"/>
      <point x="361" y="838"/>
      <point x="407" y="883"/>
      <point x="439" y="883" type="qcurve"/>
      <point x="466" y="883"/>
      <point x="500" y="847"/>
      <point x="500" y="821" type="qcurve"/>
      <point x="500" y="789"/>
      <point x="454" y="744"/>
      <point x="422" y="744" type="qcurve"/>
      <point x="396" y="744"/>
      <point x="361" y="780"/>
    </contour>
    <contour>
      <point x="385" y="809" type="qcurve"/>
      <point x="385" y="792"/>
      <point x="408" y="768"/>
      <point x="425" y="768" type="qcurve"/>
      <point x="445" y="768"/>
      <point x="476" y="797"/>
      <point x="476" y="817" type="qcurve"/>
      <point x="476" y="834"/>
      <point x="453" y="858"/>
      <point x="436" y="858" type="qcurve"/>
      <point x="416" y="858"/>
      <point x="385" y="829"/>
    </contour>
  </outline>
</glyph>
<glyph name="Ccedilla" format="1">
  <advance width="655"/>
  <unicode hex="00C7"/>
  <outline>
    <contour>
      <point x="603" y="572" type="line"/>
      <point x="611" y="643" type="line"/>
      <point x="581" y="660"/>
      <point x="508" y="676"/>
      <point x="470" y="676" type="qcurve"/>
      <point x="398" y="676"/>
      <point x="265" y="619"/>
      <point x="165" y="521"/>
      <point x="105" y="390"/>
      <point x="105" y="317" type="qcurve"/>
      <point x="105" y="260"/>
      <point x="143" y="157"/>
      <point x="215" y="80"/>
      <point x="319" y="34"/>
      <point x="384" y="34" type="qcurve"/>
      <point x="439" y="34"/>
      <point x="535" y="63"/>
      <point x="567" y="82" type="qcurve"/>
      <point x="583" y="45" type="line"/>
      <point x="545" y="24"/>
      <point x="446" y="-6"/>
      <point x="387" y="-8" type="qcurve"/>
      <point x="385" y="-21"/>
      <point x="392" y="-37"/>
      <point x="402" y="-49"/>
      <point x="416" y="-57"/>
      <point x="422" y="-61" type="qcurve"/>
      <point x="440" y="-75"/>
      <point x="455" y="-110"/>
      <point x="455" y="-124" type="qcurve"/>
      <point x="455" y="-175"/>
      <point x="394" y="-233"/>
      <point x="351" y="-233" type="qcurve"/>
      <point x="322" y="-233"/>
      <point x="277" y="-201"/>
      <point x="270" y="-169" type="qcurve"/>
      <point x="296" y="-158" type="line"/>
      <point x="299" y="-178"/>
      <point x="329" y="-203"/>
      <point x="352" y="-203" type="qcurve"/>
      <point x="384" y="-203"/>
      <point x="425" y="-160"/>
      <point x="425" y="-128" type="qcurve"/>
      <point x="425" y="-106"/>
      <point x="403" y="-81"/>
      <point x="377" y="-61"/>
      <point x="357" y="-38"/>
      <point x="360" y="-18" type="qcurve"/>
      <point x="361" y="-7" type="line"/>
      <point x="291" y="-4"/>
      <point x="180" y="48"/>
      <point x="104" y="134"/>
      <point x="63" y="247"/>
      <point x="63" y="310" type="qcurve"/>
      <point x="63" y="395"/>
      <point x="131" y="542"/>
      <point x="244" y="652"/>
      <point x="392" y="715"/>
      <point x="472" y="715" type="qcurve"/>
      <point x="526" y="715"/>
      <point x="621" y="687"/>
      <point x="653" y="665" type="qcurve"/>
      <point x="642" y="572" type="line"/>
    </contour>
  </outline>
</glyph>
<glyph name="Edieresis" format="1">
  <advance width="638"/>
  <unicode hex="00CB"/>
  <outline>
    <contour>
      <point x="572" y="596" type="line"/>
      <point x="581" y="669" type="line"/>
      <point x="229" y="669" type="line"/>
      <point x="193" y="375" type="line"/>
      <point x="545" y="375" type="line"/>
      <point x="540" y="337" type="line"/>
      <point x="188" y="337" type="line"/>
      <point x="152" y="39" type="line"/>
      <point x="518" y="39" type="line"/>
      <point x="527" y="114" type="line"/>
      <point x="566" y="114" type="line"/>
      <point x="557" y="39" type="line"/>
      <point x="554" y="16" type="line"/>
      <point x="552" y="0" type="line"/>
      <point x="29" y="0" type="line"/>
      <point x="34" y="37" type="line"/>
      <point x="110" y="37" type="line"/>
      <point x="188" y="670" type="line"/>
      <point x="111" y="670" type="line"/>
      <point x="116" y="707" type="line"/>
      <point x="625" y="707" type="line"/>
      <point x="623" y="690" type="line"/>
      <point x="611" y="596" type="line"/>
    </contour>
    <contour>
      <point x="298" y="773" type="qcurve"/>
      <point x="298" y="787"/>
      <point x="319" y="807"/>
      <point x="333" y="807" type="qcurve"/>
      <point x="344" y="807"/>
      <point x="359" y="791"/>
      <point x="359" y="779" type="qcurve"/>
      <point x="359" y="765"/>
      <point x="338" y="746"/>
      <point x="325" y="746" type="qcurve"/>
      <point x="314" y="746"/>
      <point x="298" y="762"/>
    </contour>
    <contour>
      <point x="470" y="773" type="qcurve"/>
      <point x="470" y="787"/>
      <point x="491" y="807"/>
      <point x="505" y="807" type="qcurve"/>
      <point x="516" y="807"/>
      <point x="531" y="791"/>
      <point x="531" y="779" type="qcurve"/>
      <point x="531" y="765"/>
      <point x="510" y="746"/>
      <point x="497" y="746" type="qcurve"/>
      <point x="486" y="746"/>
      <point x="470" y="762"/>
    </contour>
  </outline>
</glyph>
<glyph name="Iacute" format="1">
  <advance width="321"/>
  <unicode hex="00CD"/>
  <outline>
    <contour>
      <point x="317" y="707" type="line"/>
      <point x="312" y="670" type="line"/>
      <point x="230" y="670" type="line"/>
      <point x="152" y="37" type="line"/>
      <point x="235" y="37" type="line"/>
      <point x="230" y="0" type="line"/>
      <point x="29" y="0" type="line"/>
      <point x="34" y="37" type="line"/>
      <point x="111" y="37" type="line"/>
      <point x="189" y="670" type="line"/>
      <point x="111" y="670" type="line"/>
      <point x="116" y="707" type="line"/>
    </contour>
    <contour>
      <point x="159" y="746" type="line"/>
      <point x="265" y="879" type="line"/>
      <point x="303" y="879" type="line"/>
      <point x="188" y="746" type="line"/>
    </contour>
  </outline>
</glyph>
<glyph name="Idieresis" format="1">
  <advance width="321"/>
  <unicode hex="00CF"/>
  <outline>
    <contour>
      <point x="317" y="707" type="line"/>
      <point x="312" y="670" type="line"/>
      <point x="230" y="670" type="line"/>
      <point x="152" y="37" type="line"/>
      <point x="235" y="37" type="line"/>
      <point x="230" y="0" type="line"/>
      <point x="29" y="0" type="line"/>
      <point x="34" y="37" type="line"/>
      <point x="111" y="37" type="line"/>
      <point x="189" y="670" type="line"/>
      <point x="111" y="670" type="line"/>
      <point x="116" y="707" type="line"/>
    </contour>
    <contour>
      <point x="108" y="774" type="qcurve"/>
      <point x="108" y="788"/>
      <point x="129" y="808"/>
      <point x="143" y="808" type="qcurve"/>
      <point x="154" y="808"/>
      <point x="169" y="792"/>
      <point x="169" y="780" type="qcurve"/>
      <point x="169" y="766"/>
      <point x="148" y="747"/>
      <point x="135" y="747" type="qcurve"/>
      <point x="124" y="747"/>
      <point x="108" y="763"/>
    </contour>
    <contour>
      <point x="280" y="774" type="qcurve"/>
      <point x="280" y="788"/>
      <point x="301" y="808"/>
      <point x="315" y="808" type="qcurve"/>
      <point x="326" y="808"/>
      <point x="341" y="792"/>
      <point x="341" y="780" type="qcurve"/>
      <point x="341" y="766"/>
      <point x="320" y="747"/>
      <point x="307" y="747" type="qcurve"/>
      <point x="296" y="747"/>
      <point x="280" y="763"/>
    </contour>
  </outline>
</glyph>
<glyph name="Eth" format="1">
  <advance width="744"/>
  <unicode hex="00D0"/>
  <outline>
    <contour>
      <point x="91" y="369" type="line"/>
      <point x="154" y="369" type="line"/>
      <point x="191" y="670" type="line"/>
      <point x="114" y="670" type="line"/>
      <point x="119" y="707" type="line"/>
      <point x="350" y="707" type="line"/>
      <point x="447" y="707"/>
      <point x="580" y="650"/>
      <point x="662" y="560"/>
      <point x="699" y="447"/>
      <point x="699" y="390" type="qcurve"/>
      <point x="699" y="301"/>
      <point x="632" y="157"/>
      <point x="521" y="55"/>
      <point x="376" y="0"/>
      <point x="298" y="0" type="qcurve"/>
      <point x="32" y="0" type="line"/>
      <point x="37" y="37" type="line"/>
      <point x="113" y="37" type="line"/>
      <point x="150" y="338" type="line"/>
      <point x="87" y="338" type="line"/>
    </contour>
    <contour>
      <point x="302" y="40" type="line"/>
      <point x="372" y="40"/>
      <point x="502" y="89"/>
      <point x="600" y="179"/>
      <point x="659" y="307"/>
      <point x="659" y="387" type="qcurve"/>
      <point x="659" y="441"/>
      <point x="623" y="542"/>
      <point x="549" y="620"/>
      <point x="436" y="666"/>
      <point x="360" y="666" type="qcurve"/>
      <point x="232" y="666" type="line"/>
      <point x="223" y="591"/>
      <point x="205" y="444"/>
      <point x="195" y="369" type="qcurve"/>
      <point x="390" y="369" type="line"/>
      <point x="386" y="338" type="line"/>
      <point x="191" y="338" type="line"/>
      <point x="155" y="40" type="line"/>
    </contour>
  </outline>
</glyph>
<glyph name="Ntilde" format="1">
  <advance width="858"/>
  <unicode hex="00D1"/>
  <outline>
    <contour>
      <point x="234" y="37" type="line"/>
      <point x="229" y="0" type="line"/>
      <point x="28" y="0" type="line"/>
      <point x="33" y="37" type="line"/>
      <point x="110" y="37" type="line"/>
      <point x="187" y="670" type="line"/>
      <point x="109" y="670" type="line"/>
      <point x="114" y="707" type="line"/>
      <point x="220" y="707" type="line"/>
      <point x="269" y="634"/>
      <point x="380" y="476"/>
      <point x="494" y="317"/>
      <point x="603" y="161"/>
      <point x="649" y="91" type="qcurve"/>
      <point x="665" y="65" type="line"/>
      <point x="666" y="73"/>
      <point x="666" y="89"/>
      <point x="666" y="97" type="qcurve"/>
      <point x="736" y="671" type="line"/>
      <point x="652" y="671" type="line"/>
      <point x="657" y="708" type="line"/>
      <point x="858" y="708" type="line"/>
      <point x="853" y="671" type="line"/>
      <point x="777" y="671" type="line"/>
      <point x="691" y="-32" type="line"/>
      <point x="659" y="15"/>
      <point x="583" y="122"/>
      <point x="502" y="236"/>
      <point x="419" y="352"/>
      <point x="340" y="465"/>
      <point x="268" y="571"/>
      <point x="239" y="617" type="qcurve"/>
      <point x="236" y="622"/>
      <point x="226" y="636"/>
      <point x="222" y="643" type="qcurve"/>
      <point x="222" y="611" type="line"/>
      <point x="151" y="37" type="line"/>
    </contour>
    <contour>
      <point x="485" y="785" type="qcurve"/>
      <point x="471" y="802"/>
      <point x="449" y="814"/>
      <point x="435" y="814" type="qcurve"/>
      <point x="427" y="814"/>
      <point x="407" y="810"/>
      <point x="387" y="798"/>
      <point x="370" y="777"/>
      <point x="366" y="761" type="qcurve"/>
      <point x="343" y="764" type="line"/>
      <point x="346" y="783"/>
      <point x="366" y="811"/>
      <point x="392" y="829"/>
      <point x="423" y="838"/>
      <point x="437" y="838" type="qcurve"/>
      <point x="458" y="838"/>
      <point x="490" y="818"/>
      <point x="504" y="801" type="qcurve"/>
      <point x="518" y="784"/>
      <point x="541" y="772"/>
      <point x="555" y="772" type="qcurve"/>
      <point x="562" y="772"/>
      <point x="583" y="776"/>
      <point x="603" y="788"/>
      <point x="619" y="809"/>
      <point x="623" y="825" type="qcurve"/>
      <point x="646" y="822" type="line"/>
      <point x="638" y="784"/>
      <point x="581" y="749"/>
      <point x="552" y="749" type="qcurve"/>
      <point x="531" y="749"/>
      <point x="499" y="768"/>
    </contour>
  </outline>
</glyph>
<glyph name="multiply" format="1">
  <advance width="430"/>
  <unicode hex="00D7"/>
  <outline>
    <contour>
      <point x="297" y="0" type="line"/>
      <point x="196" y="114" type="line"/>
      <point x="69" y="0" type="line"/>
      <point x="43" y="30" type="line"/>
      <point x="170" y="144" type="line"/>
      <point x="71" y="257" type="line"/>
      <point x="104" y="287" type="line"/>
      <point x="204" y="174" type="line"/>
      <point x="332" y="287" type="line"/>
      <point x="339" y="280"/>
      <point x="351" y="265"/>
      <point x="357" y="258" type="qcurve"/>
      <point x="230" y="144" type="line"/>
      <point x="256" y="115"/>
      <point x="305" y="59"/>
      <point x="330" y="30" type="qcurve"/>
    </contour>
  </outline>
</glyph>
<glyph name="Ucircumflex" format="1">
  <advance width="724"/>
  <unicode hex="00DB"/>
  <outline>
    <contour>
      <point x="300" y="707" type="line"/>
      <point x="295" y="670" type="line"/>
      <point x="214" y="670" type="line"/>
      <point x="161" y="238" type="line"/>
      <point x="155" y="190"/>
      <point x="175" y="113"/>
      <point x="222" y="59"/>
      <point x="291" y="31"/>
      <point x="334" y="31" type="qcurve"/>
      <point x="376" y="31"/>
      <point x="452" y="59"/>
      <point x="512" y="113"/>
      <point x="552" y="190"/>
      <point x="558" y="238" type="qcurve"/>
      <point x="615" y="707" type="line"/>
      <point x="735" y="707" type="line"/>
      <point x="731" y="670" type="line"/>
      <point x="652" y="670" type="line"/>
      <point x="599" y="235" type="line"/>
      <point x="592" y="177"/>
      <point x="544" y="86"/>
      <point x="471" y="24"/>
      <point x="380" y="-8"/>
      <point x="329" y="-8" type="qcurve"/>
      <point x="278" y="-8"/>
      <point x="194" y="24"/>
      <point x="138" y="86"/>
      <point x="112" y="177"/>
      <point x="120" y="235" type="qcurve"/>
      <point x="172" y="670" type="line"/>
      <point x="94" y="670" type="line"/>
      <point x="99" y="707" type="line"/>
    </contour>
    <contour>
      <point x="446" y="928" type="line"/>
      <point x="471" y="882"/>
      <point x="519" y="791"/>
      <point x="545" y="746" type="qcurve"/>
      <point x="515" y="746" type="line"/>
      <point x="498" y="777"/>
      <point x="458" y="847"/>
      <point x="440" y="878" type="qcurve"/>
      <point x="416" y="847"/>
      <point x="358" y="777"/>
      <point x="333" y="746" type="qcurve"/>
      <point x="304" y="746" type="line"/>
    </contour>
  </outline>
</glyph>
<glyph name="Udieresis" format="1">
  <advance width="724"/>
  <unicode hex="00DC"/>
  <outline>
    <contour>
      <point x="300" y="707" type="line"/>
      <point x="295" y="670" type="line"/>
      <point x="214" y="670" type="line"/>
      <point x="161" y="238" type="line"/>
      <point x="155" y="190"/>
      <point x="175" y="113"/>
      <point x="222" y="59"/>
      <point x="291" y="31"/>
      <point x="334" y="31" type="qcurve"/>
      <point x="376" y="31"/>
      <point x="452" y="59"/>
      <point x="512" y="113"/>
      <point x="552" y="190"/>
      <point x="558" y="238" type="qcurve"/>
      <point x="615" y="707" type="line"/>
      <point x="735" y="707" type="line"/>
      <point x="731" y="670" type="line"/>
      <point x="652" y="670" type="line"/>
      <point x="599" y="235" type="line"/>
      <point x="592" y="177"/>
      <point x="544" y="86"/>
      <point x="471" y="24"/>
      <point x="380" y="-8"/>
      <point x="329" y="-8" type="qcurve"/>
      <point x="278" y="-8"/>
      <point x="194" y="24"/>
      <point x="138" y="86"/>
      <point x="112" y="177"/>
      <point x="120" y="235" type="qcurve"/>
      <point x="172" y="670" type="line"/>
      <point x="94" y="670" type="line"/>
      <point x="99" y="707" type="line"/>
    </contour>
    <contour>
      <point x="315" y="773" type="qcurve"/>
      <point x="315" y="787"/>
      <point x="336" y="807"/>
      <point x="350" y="807" type="qcurve"/>
      <point x="361" y="807"/>
      <point x="376" y="791"/>
      <point x="376" y="779" type="qcurve"/>
      <point x="376" y="765"/>
      <point x="355" y="746"/>
      <point x="342" y="746" type="qcurve"/>
      <point x="331" y="746"/>
      <point x="315" y="762"/>
    </contour>
    <contour>
      <point x="487" y="773" type="qcurve"/>
      <point x="487" y="787"/>
      <point x="508" y="807"/>
      <point x="522" y="807" type="qcurve"/>
      <point x="533" y="807"/>
      <point x="548" y="791"/>
      <point x="548" y="779" type="qcurve"/>
      <point x="548" y="765"/>
      <point x="527" y="746"/>
      <point x="514" y="746" type="qcurve"/>
      <point x="503" y="746"/>
      <point x="487" y="762"/>
    </contour>
  </outline>
</glyph>
<glyph name="germandbls" format="1">
  <advance width="534"/>
  <unicode hex="00DF"/>
  <outline>
    <contour>
      <point x="152" y="18" type="qcurve"/>
      <point x="157" y="26"/>
      <point x="166" y="41"/>
      <point x="171" y="49" type="qcurve"/>
      <point x="188" y="38"/>
      <point x="228" y="26"/>
      <point x="251" y="26" type="qcurve"/>
      <point x="290" y="26"/>
      <point x="362" y="57"/>
      <point x="417" y="110"/>
      <point x="450" y="178"/>
      <point x="450" y="216" type="qcurve"/>
      <point x="450" y="248"/>
      <point x="427" y="304"/>
      <point x="385" y="346"/>
      <point x="328" y="370"/>
      <point x="295" y="370" type="qcurve"/>
      <point x="297" y="388" type="line"/>
      <point x="299" y="406" type="line"/>
      <point x="324" y="406"/>
      <point x="370" y="423"/>
      <point x="405" y="453"/>
      <point x="425" y="497"/>
      <point x="425" y="524" type="qcurve"/>
      <point x="425" y="543"/>
      <point x="412" y="580"/>
      <point x="385" y="608"/>
      <point x="343" y="625"/>
      <point x="315" y="625" type="qcurve"/>
      <point x="241" y="625"/>
      <point x="156" y="518"/>
      <point x="145" y="428" type="qcurve"/>
      <point x="92" y="0" type="line"/>
      <point x="57" y="0" type="line"/>
      <point x="101" y="360" type="line"/>
      <point x="36" y="360" type="line"/>
      <point x="40" y="395" type="line"/>
      <point x="105" y="395" type="line"/>
      <point x="109" y="427" type="line"/>
      <point x="123" y="538"/>
      <point x="233" y="658"/>
      <point x="311" y="660" type="qcurve"/>
      <point x="353" y="660"/>
      <point x="410" y="638"/>
      <point x="446" y="603"/>
      <point x="462" y="558"/>
      <point x="462" y="534" type="qcurve"/>
      <point x="462" y="481"/>
      <point x="408" y="408"/>
      <point x="362" y="391" type="qcurve"/>
      <point x="388" y="385"/>
      <point x="433" y="353"/>
      <point x="467" y="308"/>
      <point x="486" y="252"/>
      <point x="486" y="220" type="qcurve"/>
      <point x="486" y="174"/>
      <point x="446" y="91"/>
      <point x="380" y="29"/>
      <point x="294" y="-8"/>
      <point x="248" y="-8" type="qcurve"/>
      <point x="193" y="-8"/>
    </contour>
  </outline>
</glyph>
<glyph name="aring" format="1">
  <advance width="540"/>
  <unicode hex="00E5"/>
  <outline>
    <contour>
      <point x="417" y="31" type="line"/>
      <point x="491" y="31" type="line"/>
      <point x="487" y="0" type="line"/>
      <point x="378" y="0" type="line"/>
      <point x="385" y="48" type="line"/>
      <point x="391" y="99" type="line"/>
      <point x="368" y="55"/>
      <point x="271" y="-7"/>
      <point x="208" y="-7" type="qcurve"/>
      <point x="169" y="-7"/>
      <point x="103" y="21"/>
      <point x="56" y="69"/>
      <point x="30" y="134"/>
      <point x="30" y="172" type="qcurve"/>
      <point x="30" y="218"/>
      <point x="67" y="299"/>
      <point x="130" y="360"/>
      <point x="212" y="396"/>
      <point x="257" y="396" type="qcurve"/>
      <point x="288" y="396"/>
      <point x="340" y="379"/>
      <point x="380" y="349"/>
      <point x="408" y="310"/>
      <point x="414" y="288" type="qcurve"/>
      <point x="417" y="313"/>
      <point x="425" y="363"/>
      <point x="430" y="387" type="qcurve"/>
      <point x="461" y="387" type="line"/>
    </contour>
    <contour>
      <point x="64" y="177" type="qcurve"/>
      <point x="64" y="145"/>
      <point x="86" y="91"/>
      <point x="125" y="50"/>
      <point x="180" y="27"/>
      <point x="212" y="27" type="qcurve"/>
      <point x="250" y="27"/>
      <point x="319" y="56"/>
      <point x="371" y="107"/>
      <point x="402" y="173"/>
      <point x="402" y="211" type="qcurve"/>
      <point x="402" y="243"/>
      <point x="380" y="298"/>
      <point x="340" y="339"/>
      <point x="286" y="362"/>
      <point x="253" y="362" type="qcurve"/>
      <point x="215" y="362"/>
      <point x="146" y="333"/>
      <point x="94" y="282"/>
      <point x="64" y="215"/>
    </contour>
    <contour>
      <point x="201" y="505" type="qcurve"/>
      <point x="201" y="537"/>
      <point x="247" y="582"/>
      <point x="279" y="582" type="qcurve"/>
      <point x="305" y="582"/>
      <point x="340" y="546"/>
      <point x="340" y="520" type="qcurve"/>
      <point x="340" y="488"/>
      <point x="294" y="443"/>
      <point x="262" y="443" type="qcurve"/>
      <point x="235" y="443"/>
      <point x="201" y="479"/>
    </contour>
    <contour>
      <point x="225" y="509" type="qcurve"/>
      <point x="225" y="492"/>
      <point x="248" y="468"/>
      <point x="265" y="468" type="qcurve"/>
      <point x="285" y="468"/>
      <point x="316" y="496"/>
      <point x="316" y="516" type="qcurve"/>
      <point x="316" y="533"/>
      <point x="293" y="558"/>
      <point x="276" y="558" type="qcurve"/>
      <point x="256" y="558"/>
      <point x="225" y="529"/>
    </contour>
  </outline>
</glyph>
<glyph name="eth" format="1">
  <advance width="498"/>
  <unicode hex="00F0"/>
  <outline>
    <contour>
      <point x="31" y="194" type="qcurve"/>
      <point x="36" y="236"/>
      <point x="77" y="310"/>
      <point x="138" y="365"/>
      <point x="216" y="397"/>
      <point x="259" y="397" type="qcurve"/>
      <point x="301" y="397"/>
      <point x="369" y="366"/>
      <point x="393" y="339" type="qcurve"/>
      <point x="385" y="393"/>
      <point x="327" y="538"/>
      <point x="270" y="617" type="qcurve"/>
      <point x="190" y="541" type="line"/>
      <point x="186" y="546"/>
      <point x="178" y="555"/>
      <point x="173" y="560" type="qcurve"/>
      <point x="256" y="639" type="line"/>
      <point x="236" y="664"/>
      <point x="195" y="710"/>
      <point x="171" y="731" type="qcurve"/>
      <point x="193" y="751" type="line"/>
      <point x="216" y="731"/>
      <point x="259" y="686"/>
      <point x="279" y="660" type="qcurve"/>
      <point x="316" y="697"/>
      <point x="355" y="733" type="qcurve"/>
      <point x="359" y="729"/>
      <point x="367" y="720"/>
      <point x="372" y="716" type="qcurve"/>
      <point x="294" y="640" type="line"/>
      <point x="324" y="597"/>
      <point x="378" y="497"/>
      <point x="418" y="391"/>
      <point x="441" y="284"/>
      <point x="441" y="234" type="qcurve"/>
      <point x="441" y="213"/>
      <point x="438" y="191"/>
      <point x="436" y="187" type="qcurve"/>
      <point x="430" y="146"/>
      <point x="390" y="75"/>
      <point x="328" y="23"/>
      <point x="251" y="-7"/>
      <point x="208" y="-7" type="qcurve"/>
      <point x="166" y="-7"/>
      <point x="96" y="23"/>
      <point x="48" y="77"/>
      <point x="26" y="151"/>
    </contour>
    <contour>
      <point x="66" y="194" type="qcurve"/>
      <point x="61" y="159"/>
      <point x="80" y="98"/>
      <point x="119" y="53"/>
      <point x="177" y="27"/>
      <point x="212" y="27" type="qcurve"/>
      <point x="250" y="27"/>
      <point x="319" y="56"/>
      <point x="371" y="106"/>
      <point x="402" y="173"/>
      <point x="402" y="211" type="qcurve"/>
      <point x="402" y="243"/>
      <point x="380" y="298"/>
      <point x="340" y="339"/>
      <point x="285" y="362"/>
      <point x="253" y="362" type="qcurve"/>
      <point x="218" y="362"/>
      <point x="154" y="336"/>
      <point x="103" y="290"/>
      <point x="70" y="229"/>
    </contour>
  </outline>
</glyph>
<glyph name="odieresis" format="1">
  <advance width="487"/>
  <unicode hex="00F6"/>
  <outline>
    <contour>
      <point x="31" y="194" type="qcurve"/>
      <point x="36" y="236"/>
      <point x="77" y="310"/>
      <point x="138" y="365"/>
      <point x="216" y="397"/>
      <point x="259" y="397" type="qcurve"/>
      <point x="298" y="397"/>
      <point x="364" y="369"/>
      <point x="412" y="320"/>
      <point x="438" y="254"/>
      <point x="438" y="216" type="qcurve"/>
      <point x="438" y="169"/>
      <point x="401" y="88"/>
      <point x="338" y="28"/>
      <point x="254" y="-7"/>
      <point x="208" y="-7" type="qcurve"/>
      <point x="166" y="-7"/>
      <point x="96" y="23"/>
      <point x="48" y="77"/>
      <point x="26" y="151"/>
    </contour>
    <contour>
      <point x="66" y="194" type="qcurve"/>
      <point x="61" y="159"/>
      <point x="80" y="98"/>
      <point x="119" y="53"/>
      <point x="177" y="27"/>
      <point x="212" y="27" type="qcurve"/>
      <point x="250" y="27"/>
      <point x="319" y="56"/>
      <point x="371" y="106"/>
      <point x="402" y="173"/>
      <point x="402" y="211" type="qcurve"/>
      <point x="402" y="243"/>
      <point x="380" y="298"/>
      <point x="340" y="339"/>
      <point x="285" y="362"/>
      <point x="253" y="362" type="qcurve"/>
      <point x="218" y="362"/>
      <point x="154" y="336"/>
      <point x="103" y="290"/>
      <point x="70" y="229"/>
    </contour>
    <contour>
      <point x="331" y="505" type="qcurve"/>
      <point x="331" y="519"/>
      <point x="352" y="539"/>
      <point x="366" y="539" type="qcurve"/>
      <point x="377" y="539"/>
      <point x="392" y="523"/>
      <point x="392" y="511" type="qcurve"/>
      <point x="392" y="497"/>
      <point x="371" y="478"/>
      <point x="358" y="478" type="qcurve"/>
      <point x="347" y="478"/>
      <point x="331" y="494"/>
    </contour>
    <contour>
      <point x="159" y="505" type="qcurve"/>
      <point x="159" y="519"/>
      <point x="180" y="539"/>
      <point x="194" y="539" type="qcurve"/>
      <point x="205" y="539"/>
      <point x="220" y="523"/>
      <point x="220" y="511" type="qcurve"/>
      <point x="220" y="497"/>
      <point x="199" y="478"/>
      <point x="186" y="478" type="qcurve"/>
      <point x="175" y="478"/>
      <point x="159" y="494"/>
    </contour>
  </outline>
</glyph>
<glyph name="divide" format="1">
  <advance width="515"/>
  <unicode hex="00F7"/>
  <outline>
    <contour>
      <point x="431" y="210" type="line"/>
      <point x="69" y="210" type="line"/>
      <point x="74" y="245" type="line"/>
      <point x="435" y="245" type="line"/>
    </contour>
    <contour>
      <point x="241" y="355" type="qcurve"/>
      <point x="241" y="369"/>
      <point x="262" y="389"/>
      <point x="275" y="389" type="qcurve"/>
      <point x="286" y="389"/>
      <point x="301" y="373"/>
      <point x="301" y="362" type="qcurve"/>
      <point x="301" y="347"/>
      <point x="281" y="328"/>
      <point x="268" y="328" type="qcurve"/>
      <point x="257" y="328"/>
      <point x="241" y="344"/>
    </contour>
    <contour>
      <point x="208" y="92" type="qcurve"/>
      <point x="208" y="106"/>
      <point x="230" y="126"/>
      <point x="243" y="126" type="qcurve"/>
      <point x="254" y="126"/>
      <point x="270" y="110"/>
      <point x="270" y="99" type="qcurve"/>
      <point x="270" y="84"/>
      <point x="248" y="65"/>
      <point x="235" y="65" type="qcurve"/>
      <point x="224" y="65"/>
      <point x="208" y="81"/>
    </contour>
  </outline>
</glyph>
<glyph name="ucircumflex" format="1">
  <advance width="505"/>
  <unicode hex="00FB"/>
  <outline>
    <contour>
      <point x="384" y="336" type="line"/>
      <point x="387" y="356" type="line"/>
      <point x="310" y="356" type="line"/>
      <point x="314" y="387" type="line"/>
      <point x="425" y="387" type="line"/>
      <point x="419" y="335" type="line"/>
      <point x="418" y="335" type="line"/>
      <point x="382" y="31" type="line"/>
      <point x="455" y="31" type="line"/>
      <point x="452" y="0" type="line"/>
      <point x="350" y="0" type="line"/>
      <point x="359" y="101" type="line"/>
      <point x="332" y="52"/>
      <point x="237" y="-8"/>
      <point x="179" y="-8" type="qcurve"/>
      <point x="123" y="-8"/>
      <point x="65" y="57"/>
      <point x="70" y="108" type="qcurve"/>
      <point x="101" y="356" type="line"/>
      <point x="27" y="356" type="line"/>
      <point x="31" y="387" type="line"/>
      <point x="139" y="387" type="line"/>
      <point x="132" y="330" type="line"/>
      <point x="105" y="114" type="line"/>
      <point x="103" y="79"/>
      <point x="144" y="29"/>
      <point x="187" y="26" type="qcurve"/>
      <point x="220" y="26"/>
      <point x="280" y="48"/>
      <point x="329" y="86"/>
      <point x="361" y="139"/>
      <point x="365" y="171" type="qcurve"/>
      <point x="385" y="336" type="line"/>
    </contour>
    <contour>
      <point x="290" y="609" type="qcurve"/>
      <point x="317" y="575"/>
      <point x="339" y="549" type="qcurve"/>
      <point x="358" y="526"/>
      <point x="392" y="486"/>
      <point x="395" y="481" type="qcurve"/>
      <point x="365" y="481" type="line"/>
      <point x="284" y="563" type="line"/>
      <point x="183" y="481" type="line"/>
      <point x="154" y="481" type="line"/>
      <point x="158" y="485"/>
      <point x="201" y="526"/>
      <point x="226" y="549" type="qcurve"/>
      <point x="255" y="576"/>
    </contour>
  </outline>
</glyph>
<glyph name="yacute" format="1">
  <advance width="492"/>
  <unicode hex="00FD"/>
  <outline>
    <contour>
      <point x="39" y="-155" type="line"/>
      <point x="107" y="-155" type="line"/>
      <point x="117" y="-136"/>
      <point x="145" y="-87"/>
      <point x="171" y="-40"/>
      <point x="192" y="-5"/>
      <point x="195" y="0" type="qcurve"/>
      <point x="193" y="5"/>
      <point x="178" y="49"/>
      <point x="157" y="114"/>
      <point x="131" y="191"/>
      <point x="106" y="267"/>
      <point x="83" y="335"/>
      <point x="76" y="357" type="qcurve"/>
      <point x="18" y="357" type="line"/>
      <point x="22" y="388" type="line"/>
      <point x="183" y="388" type="line"/>
      <point x="179" y="357" type="line"/>
      <point x="114" y="357" type="line"/>
      <point x="121" y="335"/>
      <point x="143" y="270"/>
      <point x="165" y="200"/>
      <point x="188" y="129"/>
      <point x="206" y="73"/>
      <point x="217" y="36"/>
      <point x="217" y="35" type="qcurve"/>
      <point x="217" y="36"/>
      <point x="237" y="72"/>
      <point x="268" y="128"/>
      <point x="308" y="198"/>
      <point x="348" y="269"/>
      <point x="385" y="333"/>
      <point x="398" y="356" type="qcurve"/>
      <point x="337" y="356" type="line"/>
      <point x="341" y="388" type="line"/>
      <point x="501" y="388" type="line"/>
      <point x="497" y="356" type="line"/>
      <point x="436" y="356" type="line"/>
      <point x="141" y="-155" type="line"/>
      <point x="212" y="-155" type="line"/>
      <point x="209" y="-186" type="line"/>
      <point x="36" y="-186" type="line"/>
    </contour>
    <contour>
      <point x="247" y="481" type="line"/>
      <point x="353" y="614" type="line"/>
      <point x="391" y="614" type="line"/>
      <point x="276" y="481" type="line"/>
    </contour>
  </outline>
</glyph>
<glyph name="abreve" format="1">
  <advance width="540"/>
  <unicode hex="0103"/>
  <outline>
    <contour>
      <point x="417" y="31" type="line"/>
      <point x="491" y="31" type="line"/>
      <point x="487" y="0" type="line"/>
      <point x="378" y="0" type="line"/>
      <point x="385" y="48" type="line"/>
      <point x="391" y="99" type="line"/>
      <point x="368" y="55"/>
      <point x="271" y="-7"/>
      <point x="208" y="-7" type="qcurve"/>
      <point x="169" y="-7"/>
      <point x="103" y="21"/>
      <point x="56" y="69"/>
      <point x="30" y="134"/>
      <point x="30" y="172" type="qcurve"/>
      <point x="30" y="218"/>
      <point x="67" y="299"/>
      <point x="130" y="360"/>
      <point x="212" y="396"/>
      <point x="257" y="396" type="qcurve"/>
      <point x="288" y="396"/>
      <point x="340" y="379"/>
      <point x="380" y="349"/>
      <point x="408" y="310"/>
      <point x="414" y="288" type="qcurve"/>
      <point x="417" y="313"/>
      <point x="425" y="363"/>
      <point x="430" y="387" type="qcurve"/>
      <point x="461" y="387" type="line"/>
    </contour>
    <contour>
      <point x="64" y="177" type="qcurve"/>
      <point x="64" y="145"/>
      <point x="86" y="91"/>
      <point x="125" y="50"/>
      <point x="180" y="27"/>
      <point x="212" y="27" type="qcurve"/>
      <point x="250" y="27"/>
      <point x="319" y="56"/>
      <point x="371" y="107"/>
      <point x="402" y="173"/>
      <point x="402" y="211" type="qcurve"/>
      <point x="402" y="243"/>
      <point x="380" y="298"/>
      <point x="340" y="339"/>
      <point x="286" y="362"/>
      <point x="253" y="362" type="qcurve"/>
      <point x="215" y="362"/>
      <point x="146" y="333"/>
      <point x="94" y="282"/>
      <point x="64" y="215"/>
    </contour>
    <contour>
      <point x="292" y="500" type="qcurve"/>
      <point x="259" y="500"/>
      <point x="203" y="524"/>
      <point x="164" y="566"/>
      <point x="145" y="624"/>
      <point x="148" y="657" type="qcurve"/>
      <point x="173" y="657" type="line"/>
      <point x="170" y="630"/>
      <point x="186" y="582"/>
      <point x="218" y="545"/>
      <point x="265" y="524"/>
      <point x="294" y="524" type="qcurve"/>
      <point x="324" y="524"/>
      <point x="376" y="545"/>
      <point x="417" y="582"/>
      <point x="443" y="630"/>
      <point x="447" y="657" type="qcurve"/>
      <point x="472" y="657" type="line"/>
      <point x="468" y="624"/>
      <point x="435" y="566"/>
      <point x="386" y="524"/>
      <point x="325" y="500"/>
    </contour>
  </outline>
</glyph>
<glyph name="Aogonek" format="1">
  <advance width="725"/>
  <unicode hex="0104"/>
  <outline>
    <contour>
      <point x="49" y="37" type="line"/>
      <point x="421" y="740" type="line"/>
      <point x="618" y="37" type="line"/>
      <point x="698" y="37" type="line"/>
      <point x="693" y="0" type="line"/>
      <point x="615" y="0" type="line"/>
      <point x="612" y="-22" type="line"/>
      <point x="609" y="-42"/>
      <point x="579" y="-63"/>
      <point x="545" y="-85"/>
      <point x="518" y="-115"/>
      <point x="518" y="-144" type="qcurve"/>
      <point x="518" y="-170"/>
      <point x="549" y="-203"/>
      <point x="575" y="-203" type="qcurve"/>
      <point x="598" y="-203"/>
      <point x="634" y="-178"/>
      <point x="642" y="-158" type="qcurve"/>
      <point x="652" y="-164"/>
      <point x="666" y="-169" type="qcurve"/>
      <point x="651" y="-201"/>
      <point x="597" y="-233"/>
      <point x="568" y="-233" type="qcurve"/>
      <point x="533" y="-233"/>
      <point x="489" y="-189"/>
      <point x="489" y="-147" type="qcurve"/>
      <point x="489" y="-124"/>
      <point x="512" y="-79"/>
      <point x="539" y="-61" type="qcurve"/>
      <point x="553" y="-53"/>
      <point x="583" y="-33"/>
      <point x="588" y="-6" type="qcurve"/>
      <point x="589" y="0" type="line"/>
      <point x="492" y="0" type="line"/>
      <point x="497" y="37" type="line"/>
      <point x="577" y="37" type="line"/>
      <point x="508" y="287" type="line"/>
      <point x="222" y="287" type="line"/>
      <point x="91" y="37" type="line"/>
      <point x="175" y="37" type="line"/>
      <point x="170" y="0" type="line"/>
      <point x="-31" y="0" type="line"/>
      <point x="-26" y="37" type="line"/>
    </contour>
    <contour>
      <point x="240" y="323" type="line"/>
      <point x="498" y="323" type="line"/>
      <point x="416" y="623" type="line"/>
      <point x="414" y="629"/>
      <point x="413" y="634" type="qcurve"/>
      <point x="412" y="639"/>
      <point x="410" y="648"/>
      <point x="410" y="652" type="qcurve"/>
      <point x="408" y="648"/>
      <point x="404" y="639"/>
      <point x="402" y="634" type="qcurve"/>
      <point x="399" y="629"/>
      <point x="397" y="623" type="qcurve"/>
    </contour>
  </outline>
</glyph>
<glyph name="cdotaccent" format="1">
  <advance width="404"/>
  <unicode hex="010B"/>
  <outline>
    <contour>
      <point x="382" y="352" type="qcurve"/>
      <point x="374" y="290" type="line"/>
      <point x="344" y="290" type="line"/>
      <point x="348" y="332" type="line"/>
      <point x="309" y="362"/>
      <point x="255" y="362" type="qcurve"/>
      <point x="217" y="362"/>
      <point x="148" y="333"/>
      <point x="96" y="282"/>
      <point x="65" y="215"/>
      <point x="65" y="177" type="qcurve"/>
      <point x="65" y="145"/>
      <point x="87" y="91"/>
      <point x="126" y="50"/>
      <point x="180" y="27"/>
      <point x="213" y="27" type="qcurve"/>
      <point x="244" y="27"/>
      <point x="302" y="46"/>
      <point x="325" y="63" type="qcurve"/>
      <point x="330" y="57"/>
      <point x="339" y="44"/>
      <point x="344" y="37" type="qcurve"/>
      <point x="315" y="16"/>
      <point x="247" y="-7"/>
      <point x="209" y="-7" type="qcurve"/>
      <point x="169" y="-7"/>
      <point x="103" y="21"/>
      <point x="56" y="69"/>
      <point x="30" y="135"/>
      <point x="30" y="173" type="qcurve"/>
      <point x="30" y="219"/>
      <point x="68" y="300"/>
      <point x="131" y="361"/>
      <point x="214" y="396"/>
      <point x="259" y="396" type="qcurve"/>
      <point x="295" y="396"/>
      <point x="358" y="373"/>
    </contour>
    <contour>
      <point x="240" y="508" type="qcurve"/>
      <point x="240" y="522"/>
      <point x="262" y="542"/>
      <point x="275" y="542" type="qcurve"/>
      <point x="286" y="542"/>
      <point x="301" y="526"/>
      <point x="301" y="514" type="qcurve"/>
      <point x="301" y="500"/>
      <point x="280" y="481"/>
      <point x="267" y="481" type="qcurve"/>
      <point x="256" y="481"/>
      <point x="240" y="497"/>
    </contour>
  </outline>
</glyph>
<glyph name="Dcroat" format="1">
  <advance width="745"/>
  <unicode hex="0110"/>
  <outline>
    <contour>
      <point x="83" y="403" type="line"/>
      <point x="160" y="403" type="line"/>
      <point x="192" y="670" type="line"/>
      <point x="115" y="670" type="line"/>
      <point x="120" y="707" type="line"/>
      <point x="351" y="707" type="line"/>
      <point x="448" y="707"/>
      <point x="581" y="650"/>
      <point x="663" y="560"/>
      <point x="700" y="447"/>
      <point x="700" y="390" type="qcurve"/>
      <point x="700" y="301"/>
      <point x="633" y="157"/>
      <point x="522" y="55"/>
      <point x="377" y="0"/>
      <point x="299" y="0" type="qcurve"/>
      <point x="33" y="0" type="line"/>
      <point x="38" y="37" type="line"/>
      <point x="114" y="37" type="line"/>
      <point x="156" y="372" type="line"/>
      <point x="79" y="372" type="line"/>
    </contour>
    <contour>
      <point x="303" y="40" type="line"/>
      <point x="373" y="40"/>
      <point x="503" y="89"/>
      <point x="601" y="179"/>
      <point x="660" y="307"/>
      <point x="660" y="387" type="qcurve"/>
      <point x="660" y="441"/>
      <point x="624" y="542"/>
      <point x="550" y="620"/>
      <point x="437" y="666"/>
      <point x="361" y="666" type="qcurve"/>
      <point x="233" y="666" type="line"/>
      <point x="201" y="403" type="line"/>
      <point x="369" y="403" type="line"/>
      <point x="365" y="372" type="line"/>
      <point x="197" y="372" type="line"/>
      <point x="186" y="288"/>
      <point x="166" y="123"/>
      <point x="156" y="40" type="qcurve"/>
    </contour>
  </outline>
</glyph>
<glyph name="Edotaccent" format="1">
  <advance width="638"/>
  <unicode hex="0116"/>
  <outline>
    <contour>
      <point x="572" y="596" type="line"/>
      <point x="581" y="669" type="line"/>
      <point x="229" y="669" type="line"/>
      <point x="193" y="375" type="line"/>
      <point x="545" y="375" type="line"/>
      <point x="540" y="337" type="line"/>
      <point x="188" y="337" type="line"/>
      <point x="152" y="39" type="line"/>
      <point x="518" y="39" type="line"/>
      <point x="527" y="114" type="line"/>
      <point x="566" y="114" type="line"/>
      <point x="557" y="39" type="line"/>
      <point x="554" y="16" type="line"/>
      <point x="552" y="0" type="line"/>
      <point x="29" y="0" type="line"/>
      <point x="34" y="37" type="line"/>
      <point x="110" y="37" type="line"/>
      <point x="188" y="670" type="line"/>
      <point x="111" y="670" type="line"/>
      <point x="116" y="707" type="line"/>
      <point x="625" y="707" type="line"/>
      <point x="623" y="690" type="line"/>
      <point x="611" y="596" type="line"/>
    </contour>
    <contour>
      <point x="369" y="774" type="qcurve"/>
      <point x="369" y="788"/>
      <point x="391" y="808"/>
      <point x="404" y="808" type="qcurve"/>
      <point x="415" y="808"/>
      <point x="430" y="792"/>
      <point x="430" y="780" type="qcurve"/>
      <point x="430" y="766"/>
      <point x="409" y="747"/>
      <point x="396" y="747" type="qcurve"/>
      <point x="385" y="747"/>
      <point x="369" y="763"/>
    </contour>
  </outline>
</glyph>
<glyph name="ecaron" format="1">
  <advance width="441"/>
  <unicode hex="011B"/>
  <outline>
    <contour>
      <point x="357" y="47" type="line"/>
      <point x="327" y="22"/>
      <point x="251" y="-7"/>
      <point x="210" y="-7" type="qcurve"/>
      <point x="170" y="-7"/>
      <point x="104" y="21"/>
      <point x="56" y="69"/>
      <point x="30" y="135"/>
      <point x="30" y="173" type="qcurve"/>
      <point x="30" y="219"/>
      <point x="68" y="300"/>
      <point x="131" y="361"/>
      <point x="213" y="397"/>
      <point x="258" y="397" type="qcurve"/>
      <point x="323" y="397"/>
      <point x="404" y="322"/>
      <point x="419" y="264" type="qcurve"/>
      <point x="381" y="250"/>
      <point x="293" y="216"/>
      <point x="201" y="180"/>
      <point x="110" y="145"/>
      <point x="70" y="130" type="qcurve"/>
      <point x="84" y="84"/>
      <point x="159" y="27"/>
      <point x="213" y="27" type="qcurve"/>
      <point x="246" y="27"/>
      <point x="310" y="51"/>
      <point x="334" y="72" type="qcurve"/>
    </contour>
    <contour>
      <point x="376" y="274" type="qcurve"/>
      <point x="362" y="314"/>
      <point x="300" y="362"/>
      <point x="254" y="362" type="qcurve"/>
      <point x="217" y="362"/>
      <point x="149" y="333"/>
      <point x="97" y="282"/>
      <point x="66" y="215"/>
      <point x="65" y="178" type="qcurve"/>
      <point x="65" y="172"/>
      <point x="65" y="159"/>
      <point x="67" y="154" type="qcurve"/>
      <point x="102" y="168"/>
      <point x="182" y="199"/>
      <point x="263" y="230"/>
      <point x="341" y="260"/>
    </contour>
    <contour>
      <point x="259" y="481" type="qcurve"/>
      <point x="231" y="513"/>
      <point x="209" y="540" type="qcurve"/>
      <point x="190" y="563"/>
      <point x="157" y="604"/>
      <point x="154" y="609" type="qcurve"/>
      <point x="184" y="609" type="line"/>
      <point x="264" y="526" type="line"/>
      <point x="366" y="609" type="line"/>
      <point x="395" y="609" type="line"/>
      <point x="391" y="604"/>
      <point x="348" y="563"/>
      <point x="323" y="540" type="qcurve"/>
      <point x="294" y="513"/>
    </contour>
  </outline>
</glyph>
<glyph name="gcircumflex" format="1">
  <advance width="537"/>
  <unicode hex="011D"/>
  <outline>
    <contour>
      <point x="30" y="172" type="qcurve"/>
      <point x="30" y="218"/>
      <point x="67" y="300"/>
      <point x="130" y="361"/>
      <point x="211" y="396"/>
      <point x="256" y="396" type="qcurve"/>
      <point x="287" y="396"/>
      <point x="340" y="378"/>
      <point x="381" y="348"/>
      <point x="408" y="309"/>
      <point x="414" y="288" type="qcurve"/>
      <point x="417" y="313"/>
      <point x="425" y="363"/>
      <point x="430" y="387" type="qcurve"/>
      <point x="535" y="387" type="line"/>
      <point x="530" y="356" type="line"/>
      <point x="457" y="356" type="line"/>
      <point x="413" y="0" type="line"/>
      <point x="408" y="-38"/>
      <point x="378" y="-105"/>
      <point x="324" y="-156"/>
      <point x="243" y="-186"/>
      <point x="187" y="-186" type="qcurve"/>
      <point x="141" y="-186"/>
      <point x="62" y="-152"/>
      <point x="20" y="-106" type="qcurve"/>
      <point x="46" y="-82" type="line"/>
      <point x="65" y="-104"/>
      <point x="102" y="-131"/>
      <point x="138" y="-146"/>
      <point x="173" y="-152"/>
      <point x="190" y="-152" type="qcurve"/>
      <point x="238" y="-152"/>
      <point x="304" y="-129"/>
      <point x="348" y="-87"/>
      <point x="373" y="-30"/>
      <point x="378" y="5" type="qcurve"/>
      <point x="385" y="48" type="line"/>
      <point x="385" y="50"/>
      <point x="388" y="66"/>
      <point x="390" y="84"/>
      <point x="392" y="100"/>
      <point x="392" y="102" type="qcurve"/>
      <point x="367" y="56"/>
      <point x="269" y="-7"/>
      <point x="206" y="-7" type="qcurve"/>
      <point x="167" y="-7"/>
      <point x="103" y="21"/>
      <point x="56" y="69"/>
      <point x="30" y="134"/>
    </contour>
    <contour>
      <point x="65" y="177" type="qcurve"/>
      <point x="65" y="145"/>
      <point x="87" y="91"/>
      <point x="126" y="50"/>
      <point x="181" y="27"/>
      <point x="213" y="27" type="qcurve"/>
      <point x="251" y="27"/>
      <point x="320" y="56"/>
      <point x="372" y="107"/>
      <point x="403" y="173"/>
      <point x="403" y="211" type="qcurve"/>
      <point x="403" y="243"/>
      <point x="381" y="298"/>
      <point x="341" y="339"/>
      <point x="287" y="362"/>
      <point x="254" y="362" type="qcurve"/>
      <point x="216" y="362"/>
      <point x="147" y="333"/>
      <point x="95" y="282"/>
      <point x="65" y="215"/>
    </contour>
    <contour>
      <point x="297" y="609" type="qcurve"/>
      <point x="324" y="575"/>
      <point x="346" y="549" type="qcurve"/>
      <point x="365" y="526"/>
      <point x="399" y="486"/>
      <point x="402" y="481" type="qcurve"/>
      <point x="372" y="481" type="line"/>
      <point x="291" y="563" type="line"/>
      <point x="190" y="481" type="line"/>
      <point x="161" y="481" type="line"/>
      <point x="165" y="485"/>
      <point x="208" y="526"/>
      <point x="233" y="549" type="qcurve"/>
      <point x="262" y="576"/>
    </contour>
  </outline>
</glyph>
<glyph name="gdotaccent" format="1">
  <advance width="537"/>
  <unicode hex="0121"/>
  <outline>
    <contour>
      <point x="430" y="387" type="qcurve"/>
      <point x="535" y="387" type="line"/>
      <point x="530" y="356" type="line"/>
      <point x="457" y="356" type="line"/>
      <point x="413" y="0" type="line"/>
      <point x="408" y="-38"/>
      <point x="378" y="-105"/>
      <point x="324" y="-156"/>
      <point x="243" y="-186"/>
      <point x="187" y="-186" type="qcurve"/>
      <point x="141" y="-186"/>
      <point x="62" y="-152"/>
      <point x="20" y="-106" type="qcurve"/>
      <point x="46" y="-82" type="line"/>
      <point x="65" y="-104"/>
      <point x="102" y="-131"/>
      <point x="138" y="-146"/>
      <point x="173" y="-152"/>
      <point x="190" y="-152" type="qcurve"/>
      <point x="238" y="-152"/>
      <point x="304" y="-129"/>
      <point x="348" y="-87"/>
      <point x="373" y="-30"/>
      <point x="378" y="5" type="qcurve"/>
      <point x="385" y="48" type="line"/>
      <point x="385" y="50"/>
      <point x="388" y="66"/>
      <point x="390" y="84"/>
      <point x="392" y="100"/>
      <point x="392" y="102" type="qcurve"/>
      <point x="367" y="56"/>
      <point x="269" y="-7"/>
      <point x="206" y="-7" type="qcurve"/>
      <point x="167" y="-7"/>
      <point x="103" y="21"/>
      <point x="56" y="69"/>
      <point x="30" y="134"/>
      <point x="30" y="172" type="qcurve"/>
      <point x="30" y="218"/>
      <point x="67" y="300"/>
      <point x="130" y="361"/>
      <point x="211" y="396"/>
      <point x="256" y="396" type="qcurve"/>
      <point x="287" y="396"/>
      <point x="340" y="378"/>
      <point x="381" y="348"/>
      <point x="408" y="309"/>
      <point x="414" y="288" type="qcurve"/>
      <point x="417" y="313"/>
      <point x="425" y="363"/>
    </contour>
    <contour>
      <point x="65" y="177" type="qcurve"/>
      <point x="65" y="145"/>
      <point x="87" y="91"/>
      <point x="126" y="50"/>
      <point x="181" y="27"/>
      <point x="213" y="27" type="qcurve"/>
      <point x="251" y="27"/>
      <point x="320" y="56"/>
      <point x="372" y="107"/>
      <point x="403" y="173"/>
      <point x="403" y="211" type="qcurve"/>
      <point x="403" y="243"/>
      <point x="381" y="298"/>
      <point x="341" y="339"/>
      <point x="287" y="362"/>
      <point x="254" y="362" type="qcurve"/>
      <point x="216" y="362"/>
      <point x="147" y="333"/>
      <point x="95" y="282"/>
      <point x="65" y="215"/>
    </contour>
    <contour>
      <point x="265" y="519" type="qcurve"/>
      <point x="265" y="533"/>
      <point x="287" y="553"/>
      <point x="300" y="553" type="qcurve"/>
      <point x="311" y="553"/>
      <point x="326" y="537"/>
      <point x="326" y="525" type="qcurve"/>
      <point x="326" y="511"/>
      <point x="305" y="492"/>
      <point x="292" y="492" type="qcurve"/>
      <point x="281" y="492"/>
      <point x="265" y="508"/>
    </contour>
  </outline>
</glyph>
<glyph name="Hbar" format="1">
  <advance width="803"/>
  <unicode hex="0126"/>
  <outline>
    <contour>
      <point x="321" y="707" type="line"/>
      <point x="316" y="670" type="line"/>
      <point x="234" y="670" type="line"/>
      <point x="215" y="518" type="line"/>
      <point x="650" y="518" type="line"/>
      <point x="669" y="670" type="line"/>
      <point x="586" y="670" type="line"/>
      <point x="591" y="707" type="line"/>
      <point x="792" y="707" type="line"/>
      <point x="788" y="670" type="line"/>
      <point x="710" y="670" type="line"/>
      <point x="692" y="518" type="line"/>
      <point x="767" y="518" type="line"/>
      <point x="763" y="491" type="line"/>
      <point x="688" y="491" type="line"/>
      <point x="632" y="37" type="line"/>
      <point x="710" y="37" type="line"/>
      <point x="706" y="0" type="line"/>
      <point x="504" y="0" type="line"/>
      <point x="509" y="37" type="line"/>
      <point x="591" y="37" type="line"/>
      <point x="628" y="337" type="line"/>
      <point x="193" y="337" type="line"/>
      <point x="156" y="37" type="line"/>
      <point x="239" y="37" type="line"/>
      <point x="234" y="0" type="line"/>
      <point x="33" y="0" type="line"/>
      <point x="38" y="37" type="line"/>
      <point x="115" y="37" type="line"/>
      <point x="170" y="491" type="line"/>
      <point x="88" y="491" type="line"/>
      <point x="92" y="518" type="line"/>
      <point x="174" y="518" type="line"/>
      <point x="192" y="670" type="line"/>
      <point x="115" y="670" type="line"/>
      <point x="120" y="707" type="line"/>
    </contour>
    <contour>
      <point x="633" y="376" type="line"/>
      <point x="647" y="491" type="line"/>
      <point x="212" y="491" type="line"/>
      <point x="198" y="376" type="line"/>
    </contour>
  </outline>
</glyph>
<glyph name="Itilde" format="1">
  <advance width="321"/>
  <unicode hex="0128"/>
  <outline>
    <contour>
      <point x="317" y="707" type="line"/>
      <point x="312" y="670" type="line"/>
      <point x="230" y="670" type="line"/>
      <point x="152" y="37" type="line"/>
      <point x="235" y="37" type="line"/>
      <point x="230" y="0" type="line"/>
      <point x="29" y="0" type="line"/>
      <point x="34" y="37" type="line"/>
      <point x="111" y="37" type="line"/>
      <point x="189" y="670" type="line"/>
      <point x="111" y="670" type="line"/>
      <point x="116" y="707" type="line"/>
    </contour>
    <contour>
      <point x="215" y="785" type="qcurve"/>
      <point x="201" y="802"/>
      <point x="179" y="814"/>
      <point x="165" y="814" type="qcurve"/>
      <point x="157" y="814"/>
      <point x="137" y="810"/>
      <point x="117" y="798"/>
      <point x="100" y="777"/>
      <point x="96" y="761" type="qcurve"/>
      <point x="73" y="764" type="line"/>
      <point x="76" y="783"/>
      <point x="96" y="811"/>
      <point x="122" y="829"/>
      <point x="153" y="838"/>
      <point x="167" y="838" type="qcurve"/>
      <point x="188" y="838"/>
      <point x="220" y="818"/>
      <point x="234" y="801" type="qcurve"/>
      <point x="248" y="784"/>
      <point x="271" y="772"/>
      <point x="285" y="772" type="qcurve"/>
      <point x="292" y="772"/>
      <point x="313" y="776"/>
      <point x="333" y="788"/>
      <point x="349" y="809"/>
      <point x="353" y="825" type="qcurve"/>
      <point x="376" y="822" type="line"/>
      <point x="368" y="784"/>
      <point x="311" y="749"/>
      <point x="282" y="749" type="qcurve"/>
      <point x="261" y="749"/>
      <point x="229" y="768"/>
    </contour>
  </outline>
</glyph>
<glyph name="Jcircumflex" format="1">
  <advance width="313"/>
  <unicode hex="0134"/>
  <outline>
    <contour>
      <point x="254" y="707" type="line"/>
      <point x="250" y="670" type="line"/>
      <point x="249" y="670" type="line"/>
      <point x="180" y="103" type="line"/>
      <point x="173" y="44"/>
      <point x="129" y="-47"/>
      <point x="65" y="-109"/>
      <point x="-16" y="-143"/>
      <point x="-59" y="-144" type="qcurve"/>
      <point x="-54" y="-105" type="line"/>
      <point x="-18" y="-103"/>
      <point x="48" y="-74"/>
      <point x="99" y="-20"/>
      <point x="133" y="56"/>
      <point x="139" y="106" type="qcurve"/>
      <point x="209" y="670" type="line"/>
      <point x="108" y="670" type="line"/>
      <point x="112" y="707" type="line"/>
    </contour>
    <contour>
      <point x="223" y="872" type="qcurve"/>
      <point x="250" y="838"/>
      <point x="272" y="812" type="qcurve"/>
      <point x="291" y="789"/>
      <point x="325" y="749"/>
      <point x="328" y="744" type="qcurve"/>
      <point x="298" y="744" type="line"/>
      <point x="217" y="826" type="line"/>
      <point x="116" y="744" type="line"/>
      <point x="87" y="744" type="line"/>
      <point x="91" y="748"/>
      <point x="134" y="789"/>
      <point x="159" y="812" type="qcurve"/>
      <point x="188" y="839"/>
    </contour>
  </outline>
</glyph>
<glyph name="jcircumflex" format="1">
  <advance width="191"/>
  <unicode hex="0135"/>
  <outline>
    <contour>
      <point x="-11" y="-186" type="qcurve"/>
      <point x="-33" y="-162" type="line"/>
      <point x="-4" y="-135"/>
      <point x="37" y="-58"/>
      <point x="43" y="-7" type="qcurve"/>
      <point x="87" y="356" type="line"/>
      <point x="13" y="356" type="line"/>
      <point x="17" y="387" type="line"/>
      <point x="125" y="387" type="line"/>
      <point x="121" y="356" type="line"/>
      <point x="77" y="-5" type="line"/>
      <point x="69" y="-65"/>
      <point x="24" y="-156"/>
    </contour>
    <contour>
      <point x="131" y="663" type="line"/>
      <point x="156" y="617"/>
      <point x="204" y="526"/>
      <point x="230" y="481" type="qcurve"/>
      <point x="200" y="481" type="line"/>
      <point x="183" y="512"/>
      <point x="143" y="582"/>
      <point x="125" y="613" type="qcurve"/>
      <point x="101" y="582"/>
      <point x="43" y="512"/>
      <point x="18" y="481" type="qcurve"/>
      <point x="-11" y="481" type="line"/>
    </contour>
  </outline>
</glyph>
<glyph name="Lslash" format="1">
  <advance width="605"/>
  <unicode hex="0141"/>
  <outline>
    <contour>
      <point x="322" y="707" type="line"/>
      <point x="317" y="670" type="line"/>
      <point x="234" y="670" type="line"/>
      <point x="196" y="360" type="line"/>
      <point x="376" y="421" type="line"/>
      <point x="372" y="385" type="line"/>
      <point x="192" y="324" type="line"/>
      <point x="157" y="40" type="line"/>
      <point x="518" y="40" type="line"/>
      <point x="527" y="114" type="line"/>
      <point x="566" y="114" type="line"/>
      <point x="554" y="16" type="line"/>
      <point x="546" y="16" type="line"/>
      <point x="544" y="0" type="line"/>
      <point x="34" y="0" type="line"/>
      <point x="39" y="37" type="line"/>
      <point x="115" y="37" type="line"/>
      <point x="149" y="310" type="line"/>
      <point x="69" y="283" type="line"/>
      <point x="73" y="319" type="line"/>
      <point x="153" y="346" type="line"/>
      <point x="193" y="670" type="line"/>
      <point x="116" y="670" type="line"/>
      <point x="121" y="707" type="line"/>
    </contour>
  </outline>
</glyph>
<glyph name="lslash" format="1">
  <advance width="225"/>
  <unicode hex="0142"/>
  <outline>
    <contour>
      <point x="173" y="0" type="line"/>
      <point x="-12" y="0" type="line"/>
      <point x="-8" y="31" type="line"/>
      <point x="66" y="31" type="line"/>
      <point x="98" y="292" type="line"/>
      <point x="20" y="266" type="line"/>
      <point x="25" y="301" type="line"/>
      <point x="102" y="327" type="line"/>
      <point x="151" y="727" type="line"/>
      <point x="77" y="727" type="line"/>
      <point x="81" y="758" type="line"/>
      <point x="190" y="758" type="line"/>
      <point x="138" y="339" type="line"/>
      <point x="198" y="359" type="line"/>
      <point x="193" y="324" type="line"/>
      <point x="134" y="304" type="line"/>
      <point x="103" y="52" type="line"/>
      <point x="101" y="38" type="line"/>
      <point x="101" y="31" type="line"/>
      <point x="177" y="31" type="line"/>
    </contour>
  </outline>
</glyph>
<glyph name="uni0146" format="1">
  <advance width="512"/>
  <unicode hex="0146"/>
  <outline>
    <contour>
      <point x="397" y="58" type="line"/>
      <point x="394" y="31" type="line"/>
      <point x="468" y="31" type="line"/>
      <point x="464" y="0" type="line"/>
      <point x="280" y="0" type="line"/>
      <point x="284" y="31" type="line"/>
      <point x="359" y="31" type="line"/>
      <point x="361" y="42" type="line"/>
      <point x="362" y="57" type="line"/>
      <point x="363" y="57" type="line"/>
      <point x="389" y="274" type="line"/>
      <point x="392" y="309"/>
      <point x="351" y="359"/>
      <point x="308" y="361" type="qcurve"/>
      <point x="275" y="361"/>
      <point x="215" y="339"/>
      <point x="166" y="301"/>
      <point x="134" y="247"/>
      <point x="130" y="216" type="qcurve"/>
      <point x="109" y="41" type="line"/>
      <point x="108" y="31" type="line"/>
      <point x="184" y="31" type="line"/>
      <point x="180" y="0" type="line"/>
      <point x="-5" y="0" type="line"/>
      <point x="-1" y="31" type="line"/>
      <point x="73" y="31" type="line"/>
      <point x="113" y="356" type="line"/>
      <point x="39" y="356" type="line"/>
      <point x="43" y="387" type="line"/>
      <point x="145" y="387" type="line"/>
      <point x="145" y="383"/>
      <point x="142" y="353"/>
      <point x="139" y="319"/>
      <point x="136" y="290"/>
      <point x="136" y="287" type="qcurve"/>
      <point x="163" y="335"/>
      <point x="257" y="395"/>
      <point x="316" y="395" type="qcurve"/>
      <point x="372" y="395"/>
      <point x="429" y="331"/>
      <point x="424" y="280" type="qcurve"/>
    </contour>
    <contour>
      <point x="251" y="-22" type="line"/>
      <point x="237" y="-48"/>
      <point x="219" y="-80"/>
      <point x="203" y="-109"/>
      <point x="185" y="-142"/>
      <point x="171" y="-168" type="qcurve"/>
      <point x="139" y="-168" type="line"/>
      <point x="152" y="-142"/>
      <point x="168" y="-109"/>
      <point x="182" y="-80"/>
      <point x="198" y="-48"/>
      <point x="211" y="-22" type="qcurve"/>
    </contour>
  </outline>
</glyph>
<glyph name="rcaron" format="1">
  <advance width="313"/>
  <unicode hex="0159"/>
  <outline>
    <contour>
      <point x="305" y="354" type="line"/>
      <point x="273" y="353"/>
      <point x="214" y="333"/>
      <point x="166" y="296"/>
      <point x="134" y="245"/>
      <point x="130" y="214" type="qcurve"/>
      <point x="108" y="31" type="line"/>
      <point x="192" y="31" type="line"/>
      <point x="188" y="0" type="line"/>
      <point x="-5" y="0" type="line"/>
      <point x="-1" y="31" type="line"/>
      <point x="73" y="31" type="line"/>
      <point x="113" y="356" type="line"/>
      <point x="39" y="356" type="line"/>
      <point x="43" y="387" type="line"/>
      <point x="145" y="387" type="line"/>
      <point x="145" y="383"/>
      <point x="142" y="353"/>
      <point x="139" y="319"/>
      <point x="136" y="290"/>
      <point x="136" y="287" type="qcurve"/>
      <point x="165" y="337"/>
      <point x="264" y="394"/>
      <point x="315" y="395" type="qcurve"/>
    </contour>
    <contour>
      <point x="189" y="481" type="qcurve"/>
      <point x="161" y="513"/>
      <point x="139" y="540" type="qcurve"/>
      <point x="120" y="563"/>
      <point x="87" y="604"/>
      <point x="84" y="609" type="qcurve"/>
      <point x="114" y="609" type="line"/>
      <point x="194" y="526" type="line"/>
      <point x="296" y="609" type="line"/>
      <point x="325" y="609" type="line"/>
      <point x="321" y="604"/>
      <point x="278" y="563"/>
      <point x="253" y="540" type="qcurve"/>
      <point x="224" y="513"/>
    </contour>
  </outline>
</glyph>
<glyph name="scedilla" format="1">
  <advance width="333"/>
  <unicode hex="015F"/>
  <outline>
    <contour>
      <point x="53" y="99" type="line"/>
      <point x="47" y="55" type="line"/>
      <point x="61" y="43"/>
      <point x="111" y="26"/>
      <point x="134" y="26" type="qcurve"/>
      <point x="148" y="26"/>
      <point x="183" y="35"/>
      <point x="214" y="54"/>
      <point x="235" y="87"/>
      <point x="235" y="111" type="qcurve"/>
      <point x="235" y="133"/>
      <point x="209" y="161"/>
      <point x="170" y="180"/>
      <point x="124" y="196"/>
      <point x="85" y="218"/>
      <point x="59" y="252"/>
      <point x="59" y="280" type="qcurve"/>
      <point x="59" y="309"/>
      <point x="81" y="352"/>
      <point x="117" y="380"/>
      <point x="161" y="393"/>
      <point x="183" y="393" type="qcurve"/>
      <point x="206" y="393"/>
      <point x="265" y="374"/>
      <point x="284" y="351" type="qcurve"/>
      <point x="277" y="290" type="line"/>
      <point x="247" y="290" type="line"/>
      <point x="251" y="337" type="line"/>
      <point x="238" y="348"/>
      <point x="199" y="359"/>
      <point x="180" y="359" type="qcurve"/>
      <point x="167" y="359"/>
      <point x="137" y="351"/>
      <point x="111" y="334"/>
      <point x="94" y="306"/>
      <point x="94" y="286" type="qcurve"/>
      <point x="94" y="264"/>
      <point x="120" y="237"/>
      <point x="159" y="217"/>
      <point x="205" y="201"/>
      <point x="244" y="178"/>
      <point x="270" y="144"/>
      <point x="270" y="117" type="qcurve"/>
      <point x="270" y="93"/>
      <point x="252" y="50"/>
      <point x="219" y="16"/>
      <point x="170" y="-5"/>
      <point x="140" y="-7" type="qcurve"/>
      <point x="138" y="-20"/>
      <point x="144" y="-37"/>
      <point x="155" y="-49"/>
      <point x="169" y="-57"/>
      <point x="175" y="-61" type="qcurve"/>
      <point x="193" y="-75"/>
      <point x="208" y="-110"/>
      <point x="208" y="-124" type="qcurve"/>
      <point x="208" y="-175"/>
      <point x="147" y="-233"/>
      <point x="104" y="-233" type="qcurve"/>
      <point x="75" y="-233"/>
      <point x="30" y="-201"/>
      <point x="23" y="-169" type="qcurve"/>
      <point x="49" y="-158" type="line"/>
      <point x="52" y="-178"/>
      <point x="82" y="-203"/>
      <point x="105" y="-203" type="qcurve"/>
      <point x="137" y="-203"/>
      <point x="178" y="-160"/>
      <point x="178" y="-128" type="qcurve"/>
      <point x="178" y="-106"/>
      <point x="156" y="-80"/>
      <point x="130" y="-61"/>
      <point x="110" y="-40"/>
      <point x="112" y="-22" type="qcurve"/>
      <point x="114" y="-7" type="line"/>
      <point x="87" y="-5"/>
      <point x="32" y="15"/>
      <point x="15" y="38" type="qcurve"/>
      <point x="23" y="99" type="line"/>
    </contour>
  </outline>
</glyph>
<glyph name="Tcaron" format="1">
  <advance width="544"/>
  <unicode hex="0164"/>
  <outline>
    <contour>
      <point x="494" y="572" type="line"/>
      <point x="505" y="667" type="line"/>
      <point x="341" y="667" type="line"/>
      <point x="259" y="0" type="line"/>
      <point x="218" y="0" type="line"/>
      <point x="300" y="667" type="line"/>
      <point x="134" y="667" type="line"/>
      <point x="123" y="572" type="line"/>
      <point x="84" y="572" type="line"/>
      <point x="99" y="699" type="line"/>
      <point x="100" y="707" type="line"/>
      <point x="549" y="707" type="line"/>
      <point x="545" y="667" type="line"/>
      <point x="544" y="667" type="line"/>
      <point x="533" y="572" type="line"/>
    </contour>
    <contour>
      <point x="330" y="733" type="qcurve"/>
      <point x="302" y="765"/>
      <point x="280" y="792" type="qcurve"/>
      <point x="261" y="815"/>
      <point x="228" y="856"/>
      <point x="225" y="861" type="qcurve"/>
      <point x="255" y="861" type="line"/>
      <point x="335" y="778" type="line"/>
      <point x="437" y="861" type="line"/>
      <point x="466" y="861" type="line"/>
      <point x="462" y="856"/>
      <point x="419" y="815"/>
      <point x="394" y="792" type="qcurve"/>
      <point x="365" y="765"/>
    </contour>
  </outline>
</glyph>
<glyph name="Ubreve" format="1">
  <advance width="724"/>
  <unicode hex="016C"/>
  <outline>
    <contour>
      <point x="300" y="707" type="line"/>
      <point x="295" y="670" type="line"/>
      <point x="214" y="670" type="line"/>
      <point x="161" y="238" type="line"/>
      <point x="155" y="190"/>
      <point x="175" y="113"/>
      <point x="222" y="59"/>
      <point x="291" y="31"/>
      <point x="334" y="31" type="qcurve"/>
      <point x="376" y="31"/>
      <point x="452" y="59"/>
      <point x="512" y="113"/>
      <point x="552" y="190"/>
      <point x="558" y="238" type="qcurve"/>
      <point x="615" y="707" type="line"/>
      <point x="735" y="707" type="line"/>
      <point x="731" y="670" type="line"/>
      <point x="652" y="670" type="line"/>
      <point x="599" y="235" type="line"/>
      <point x="592" y="177"/>
      <point x="544" y="86"/>
      <point x="471" y="24"/>
      <point x="380" y="-8"/>
      <point x="329" y="-8" type="qcurve"/>
      <point x="278" y="-8"/>
      <point x="194" y="24"/>
      <point x="138" y="86"/>
      <point x="112" y="177"/>
      <point x="120" y="235" type="qcurve"/>
      <point x="172" y="670" type="line"/>
      <point x="94" y="670" type="line"/>
      <point x="99" y="707" type="line"/>
    </contour>
    <contour>
      <point x="432" y="754" type="qcurve"/>
      <point x="399" y="754"/>
      <point x="343" y="778"/>
      <point x="304" y="820"/>
      <point x="285" y="878"/>
      <point x="288" y="911" type="qcurve"/>
      <point x="313" y="911" type="line"/>
      <point x="310" y="884"/>
      <point x="326" y="836"/>
      <point x="358" y="799"/>
      <point x="405" y="778"/>
      <point x="434" y="778" type="qcurve"/>
      <point x="464" y="778"/>
      <point x="516" y="799"/>
      <point x="557" y="836"/>
      <point x="583" y="884"/>
      <point x="587" y="911" type="qcurve"/>
      <point x="612" y="911" type="line"/>
      <point x="608" y="878"/>
      <point x="575" y="820"/>
      <point x="526" y="778"/>
      <point x="465" y="754"/>
    </contour>
  </outline>
</glyph>
<glyph name="dotaccent" format="1">
  <advance width="202"/>
  <unicode hex="02D9"/>
  <outline>
    <contour>
      <point x="131" y="519" type="qcurve"/>
      <point x="131" y="533"/>
      <point x="153" y="553"/>
      <point x="166" y="553" type="qcurve"/>
      <point x="177" y="553"/>
      <point x="192" y="537"/>
      <point x="192" y="525" type="qcurve"/>
      <point x="192" y="511"/>
      <point x="171" y="492"/>
      <point x="158" y="492" type="qcurve"/>
      <point x="147" y="492"/>
      <point x="131" y="508"/>
    </contour>
  </outline>
</glyph>
<glyph name="ogonek" format="1">
  <advance width="747"/>
  <unicode hex="02DB"/>
  <outline>
    <contour>
      <point x="225" y="-22" type="line"/>
      <point x="222" y="-42"/>
      <point x="192" y="-63"/>
      <point x="158" y="-85"/>
      <point x="131" y="-115"/>
      <point x="131" y="-144" type="qcurve"/>
      <point x="131" y="-170"/>
      <point x="162" y="-203"/>
      <point x="188" y="-203" type="qcurve"/>
      <point x="211" y="-203"/>
      <point x="247" y="-178"/>
      <point x="255" y="-158" type="qcurve"/>
      <point x="265" y="-164"/>
      <point x="279" y="-169" type="qcurve"/>
      <point x="264" y="-201"/>
      <point x="210" y="-233"/>
      <point x="181" y="-233" type="qcurve"/>
      <point x="146" y="-233"/>
      <point x="102" y="-189"/>
      <point x="102" y="-147" type="qcurve"/>
      <point x="102" y="-124"/>
      <point x="125" y="-79"/>
      <point x="152" y="-61" type="qcurve"/>
      <point x="166" y="-53"/>
      <point x="196" y="-33"/>
      <point x="201" y="-6" type="qcurve"/>
      <point x="202" y="0" type="line"/>
      <point x="228" y="0" type="line"/>
    </contour>
  </outline>
</glyph>
<glyph name="emdash" format="1">
  <advance width="638"/>
  <unicode hex="2014"/>
  <outline>
    <contour>
      <point x="56" y="176" type="line"/>
      <point x="61" y="212" type="line"/>
      <point x="565" y="212" type="line"/>
      <point x="560" y="176" type="line"/>
    </contour>
  </outline>
</glyph>
<glyph name="quotesinglbase" format="1">
  <advance width="206"/>
  <unicode hex="201A"/>
  <outline>
    <contour>
      <point x="38" y="-49" type="qcurve"/>
      <point x="23" y="-29" type="line"/>
      <point x="46" y="-9"/>
      <point x="72" y="50"/>
      <point x="70" y="85" type="qcurve"/>
      <point x="101" y="92" type="line"/>
      <point x="104" y="52"/>
      <point x="70" y="-22"/>
    </contour>
  </outline>
</glyph>
<glyph name="guilsinglleft" format="1">
  <advance width="284"/>
  <unicode hex="2039"/>
  <outline>
    <contour>
      <point x="194" y="69" type="line"/>
      <point x="44" y="240" type="line"/>
      <point x="63" y="256"/>
      <point x="114" y="301"/>
      <point x="166" y="348"/>
      <point x="217" y="393"/>
      <point x="236" y="410" type="qcurve"/>
      <point x="231" y="368" type="line"/>
      <point x="199" y="339"/>
      <point x="125" y="269"/>
      <point x="93" y="240" type="qcurve"/>
      <point x="118" y="211"/>
      <point x="174" y="140"/>
      <point x="199" y="111" type="qcurve"/>
    </contour>
  </outline>
</glyph>
<glyph name="radical" format="1">
  <advance width="546"/>
  <unicode hex="221A"/>
  <outline>
    <contour>
      <point x="48" y="368" type="line"/>
      <point x="153" y="368" type="line"/>
      <point x="240" y="116" type="line"/>
      <point x="526" y="604" type="line"/>
      <point x="556" y="604" type="line"/>
      <point x="231" y="43" type="line"/>
      <point x="131" y="343" type="line"/>
      <point x="45" y="343" type="line"/>
    </contour>
  </outline>
</glyph>
<glyph name="integral" format="1">
  <advance width="305"/>
  <unicode hex="222B"/>
  <outline>
    <contour>
      <point x="178" y="631" type="line"/>
      <point x="184" y="677"/>
      <point x="206" y="725"/>
      <point x="235" y="746"/>
      <point x="270" y="749"/>
      <point x="289" y="749" type="qcurve"/>
      <point x="335" y="749" type="line"/>
      <point x="330" y="713" type="line"/>
      <point x="277" y="713" type="line"/>
      <point x="246" y="713"/>
      <point x="218" y="665"/>
      <point x="211" y="604" type="qcurve"/>
      <point x="137" y="-6" type="line"/>
      <point x="130" y="-62"/>
      <point x="109" y="-120"/>
      <point x="80" y="-146"/>
      <point x="43" y="-149"/>
      <point x="22" y="-149" type="qcurve"/>
      <point x="-23" y="-149" type="line"/>
      <point x="-18" y="-113" type="line"/>
      <point x="35" y="-113" type="line"/>
      <point x="50" y="-113"/>
      <point x="72" y="-102"/>
      <point x="87" y="-77"/>
      <point x="96" y="-35"/>
      <point x="100" y="-4" type="qcurve"/>
    </contour>
  </outline>
</glyph>
<glyph name="approxequal" format="1">
  <advance width="450"/>
  <unicode hex="2248"/>
  <outline>
    <contour>
      <point x="208" y="203" type="qcurve"/>
      <point x="194" y="220"/>
      <point x="172" y="232"/>
      <point x="158" y="232" type="qcurve"/>
      <point x="150" y="232"/>
      <point x="130" y="228"/>
      <point x="110" y="216"/>
      <point x="93" y="195"/>
      <point x="89" y="179" type="qcurve"/>
      <point x="66" y="182" type="line"/>
      <point x="69" y="201"/>
      <point x="89" y="229"/>
      <point x="115" y="247"/>
      <point x="146" y="256"/>
      <point x="160" y="256" type="qcurve"/>
      <point x="181" y="256"/>
      <point x="213" y="236"/>
      <point x="227" y="219" type="qcurve"/>
      <point x="241" y="202"/>
      <point x="264" y="190"/>
      <point x="278" y="190" type="qcurve"/>
      <point x="285" y="190"/>
      <point x="306" y="194"/>
      <point x="326" y="206"/>
      <point x="342" y="227"/>
      <point x="346" y="243" type="qcurve"/>
      <point x="369" y="240" type="line"/>
      <point x="361" y="202"/>
      <point x="304" y="167"/>
      <point x="275" y="167" type="qcurve"/>
      <point x="254" y="167"/>
      <point x="222" y="186"/>
    </contour>
    <contour>
      <point x="228" y="353" type="qcurve"/>
      <point x="214" y="370"/>
      <point x="192" y="382"/>
      <point x="178" y="382" type="qcurve"/>
      <point x="170" y="382"/>
      <point x="150" y="378"/>
      <point x="130" y="366"/>
      <point x="113" y="345"/>
      <point x="109" y="329" type="qcurve"/>
      <point x="86" y="332" type="line"/>
      <point x="89" y="351"/>
      <point x="109" y="379"/>
      <point x="135" y="397"/>
      <point x="166" y="406"/>
      <point x="180" y="406" type="qcurve"/>
      <point x="201" y="406"/>
      <point x="233" y="386"/>
      <point x="247" y="369" type="qcurve"/>
      <point x="261" y="352"/>
      <point x="284" y="340"/>
      <point x="298" y="340" type="qcurve"/>
      <point x="305" y="340"/>
      <point x="326" y="344"/>
      <point x="346" y="356"/>
      <point x="362" y="377"/>
      <point x="366" y="393" type="qcurve"/>
      <point x="389" y="390" type="line"/>
      <point x="381" y="352"/>
      <point x="324" y="317"/>
      <point x="295" y="317" type="qcurve"/>
      <point x="274" y="317"/>
      <point x="242" y="336"/>
    </contour>
  </outline>
</glyph>
